<svg width="219" height="31" viewBox="0 0 219 31" xmlns="http://www.w3.org/2000/svg"><title>canastarosa_logoGray</title><g id="Landing-Page" fill="none" fill-rule="evenodd"><g transform="translate(-532 -23)" id="Group" fill-rule="nonzero"><g id="canastarosa_logoGray" transform="translate(532 23)"><path d="M138.118 25.673v-.006h-.52c-.608 0-.955-.303-.955-.954V14.258c0-4.685-1.648-8.371-8.545-8.371-1.91 0-7.116.65-7.116 3.687v.998a1.41 1.41 0 0 0 2.82 0v-.304c0-1.604 3.168-1.909 4.253-1.909 3.99 0 5.639 1.605 5.639 6.161v.26h-1.215c-3.775 0-13.363.261-13.363 7.504 0 4.338 3.775 6.464 7.42 6.464 5.465 0 7.288-4.728 7.244-4.728h.088s-.044.65-.044 1.604c0 1.78.738 2.602 2.602 2.602h1.693v-.003a1.274 1.274 0 1 0 0-2.55zm-4.424-7.552c0 3.773-2.516 8.111-6.68 8.111-3.254 0-4.86-2.082-4.86-4.121 0-4.902 6.854-4.988 10.28-4.988h1.26v.998zM116.094 25.746c-1.65-.003-4.893-.66-4.893-5.77V8.872h4.382a1.237 1.237 0 1 0 0-2.473H111.2V1.453a1.454 1.454 0 0 0-2.906 0h-.002V6.4h-1.822a1.236 1.236 0 0 0 0 2.473h1.781v11.41c0 7.288 5.074 8.113 7.592 8.113.086 0 .17-.002.251-.005a1.32 1.32 0 1 0 0-2.644zM91.239 11.612c0-2.125 1.822-3.166 4.859-3.166 1.431 0 3.774.607 3.774 2.213v.39a1.387 1.387 0 1 0 2.776 0V9.835c0-3.08-4.425-3.947-6.638-3.947-4.381 0-7.765 1.952-7.765 5.899 0 7.028 12.234 6.16 12.234 10.932 0 2.3-2.17 3.471-4.599 3.471-2.752 0-4.733-1.351-5.805-2.323l-.004.005a1.315 1.315 0 0 0-.847-.312c-.737 0-1.334.597-1.334 1.333 0 .412.192.776.486 1.022l-.003.003c1.216 1.13 3.669 2.831 7.466 2.831 4.337 0 7.635-2.472 7.635-6.117 0-7.245-12.235-6.116-12.235-11.02zM20.003 25.003a1.314 1.314 0 0 0-2.236-.936c-1.165.886-3.146 1.994-5.827 1.994-4.597 0-8.546-3.341-8.546-8.721 0-5.292 3.774-8.806 8.458-8.806 1.822 0 4.99.867 4.99 2.69v.173a1.387 1.387 0 1 0 2.774 0v-.868c0-3.6-5.291-4.641-7.765-4.641C5.345 5.888.355 10.659.355 17.34c0 6.768 4.948 11.41 11.454 11.41 3.725 0 6.27-1.574 7.56-2.627.378-.232.634-.646.634-1.12zM85.071 25.675v-.007h-.521c-.608 0-.954-.302-.954-.953V14.259c0-4.685-1.649-8.371-8.547-8.371-1.908 0-7.114.65-7.114 3.687v.998a1.409 1.409 0 1 0 2.82 0v-.304c0-1.605 3.167-1.909 4.25-1.909 3.991 0 5.64 1.605 5.64 6.161v.26h-1.213c-1.828 0-5.014.063-7.817.948.003.052.016.1.016.153a2.497 2.497 0 0 1-2.492 2.494h-1.782c-.798 1-1.288 2.276-1.288 3.91 0 4.337 3.775 6.463 7.418 6.463 5.467 0 7.288-4.728 7.246-4.728h.086s-.044.65-.044 1.604c0 1.779.739 2.602 2.604 2.602h1.692v-.002a1.276 1.276 0 0 0 0-2.55zm-4.426-7.552c0 3.772-2.515 8.111-6.68 8.111-3.253 0-4.857-2.082-4.857-4.122 0-4.902 6.854-4.987 10.28-4.987h1.257v.998zM63.707 10.71c-.318-4.935-4.411-8.844-9.426-8.844-5.015 0-9.108 3.908-9.426 8.843V17.146a1.458 1.458 0 1 0 2.918 0v-5.821a6.508 6.508 0 0 1 13.014 0h.001v5.821a1.458 1.458 0 1 0 2.918 0V10.71h.001zM41.216 25.675v-.007h-.521c-.608 0-.954-.302-.954-.953v-6.34h-.347a2.496 2.496 0 0 1-2.493-2.493 2.495 2.495 0 0 1 2.493-2.491h.327c-.207-4.264-2.061-7.503-8.526-7.503-1.909 0-7.114.65-7.114 3.687v.998a1.409 1.409 0 1 0 2.82 0v-.304c0-1.605 3.167-1.909 4.25-1.909 3.991 0 5.64 1.605 5.64 6.161v.26h-1.213c-3.775 0-13.363.26-13.363 7.505 0 4.338 3.775 6.464 7.418 6.464 5.467 0 7.288-4.728 7.246-4.728h.086s-.044.65-.044 1.604c0 1.779.739 2.602 2.604 2.602h1.692v-.003a1.276 1.276 0 0 0 0-2.55zm-4.425-7.552c0 3.772-2.516 8.111-6.68 8.111-3.254 0-4.858-2.082-4.858-4.122 0-4.902 6.854-4.987 10.28-4.987h1.258v.998z" id="Shape" fill="#DBD9D6"/><path d="M217.188 25.675v-.007h-.52c-.607 0-.954-.302-.954-.953V14.259c0-4.685-1.649-8.371-8.546-8.371-1.91 0-7.115.65-7.115 3.687v.998a1.41 1.41 0 0 0 2.82 0v-.304c0-1.605 3.167-1.909 4.252-1.909 3.99 0 5.64 1.605 5.64 6.161v.26h-1.216c-3.774 0-13.362.26-13.362 7.505 0 4.338 3.774 6.464 7.42 6.464 5.465 0 7.288-4.728 7.243-4.728h.089s-.044.65-.044 1.604c0 1.779.737 2.602 2.602 2.602h1.692v-.003a1.275 1.275 0 0 0 0-2.55zm-4.425-7.552c0 3.772-2.516 8.111-6.68 8.111-3.253 0-4.86-2.082-4.86-4.122 0-4.902 6.855-4.987 10.281-4.987h1.26v.998zM183.658 11.612c0-2.125 1.822-3.166 4.86-3.166 1.43 0 3.774.607 3.774 2.213v.39a1.387 1.387 0 1 0 2.775 0V9.835c0-3.08-4.424-3.947-6.638-3.947-4.38 0-7.765 1.952-7.765 5.899 0 7.028 12.235 6.16 12.235 10.932 0 2.3-2.17 3.471-4.6 3.471-2.752 0-4.733-1.351-5.805-2.323l-.003.005a1.319 1.319 0 0 0-.847-.312c-.737 0-1.334.597-1.334 1.333 0 .412.192.776.485 1.022l-.002.003c1.215 1.13 3.669 2.831 7.466 2.831 4.337 0 7.635-2.472 7.635-6.117 0-7.245-12.236-6.116-12.236-11.02zM166.263 5.887c6.377 0 11.54 4.859 11.54 11.322 0 6.594-5.164 11.54-11.499 11.54-6.376 0-11.537-4.947-11.537-11.54 0-6.463 5.162-11.322 11.496-11.322zm.042 20.217c4.642 0 8.46-3.819 8.46-8.894 0-4.946-3.818-8.633-8.46-8.633-4.684 0-8.5 3.688-8.5 8.633 0 5.075 3.816 8.894 8.5 8.894zM152.859 6.19c-3.425 0-5.855 2.516-6.896 5.814h-.088s.088-.737.088-1.648V8.88c0-1.734-.825-2.471-2.647-2.471h-1.952-.002a1.278 1.278 0 1 0 0 2.559h.74c.606 0 .954.346.954.953v16.834a1.474 1.474 0 1 0 2.951 0v-7.723c0-1.388.172-2.864.606-4.251.947-3.181 3.211-5.595 6.246-5.64a1.474 1.474 0 1 0 0-2.95zM60.832 20.4c0-.01.006-.018.006-.028a.773.773 0 0 0-.77-.772.773.773 0 0 0-.772.772c0 .01.005.018.006.028v4.102c0 .012-.006.02-.006.03a.772.772 0 0 0 1.542 0c0-.01-.006-.018-.006-.03V20.4zM56.975 20.4c0-.01.006-.018.006-.028a.773.773 0 0 0-.771-.772.773.773 0 0 0-.771.772c0 .01.005.018.006.028v4.102c-.001.012-.006.02-.006.03a.772.772 0 0 0 1.542 0c0-.01-.006-.018-.006-.03V20.4zM53.117 20.4c0-.01.006-.018.006-.028a.773.773 0 0 0-.771-.772.773.773 0 0 0-.772.772c0 .012.006.021.007.033V24.5c0 .012-.007.021-.007.033a.772.772 0 0 0 1.543 0c0-.01-.006-.018-.006-.03V20.4zM49.26 20.4c0-.01.006-.018.006-.028a.772.772 0 0 0-1.542 0c0 .01.005.018.006.028v4.102c-.001.012-.006.02-.006.03a.772.772 0 0 0 1.542 0c0-.01-.006-.018-.006-.03V20.4z" id="Shape" fill="#FFF"/><path id="Rectangle-path" fill="#FFF" d="M49.26 14.643h10.042v2.48H49.26z"/><path d="M60.832 20.4c0-.01.006-.018.006-.028a.773.773 0 0 0-.77-.772.773.773 0 0 0-.772.772c0 .01.005.018.006.028v4.102c0 .012-.006.02-.006.03a.772.772 0 0 0 1.542 0c0-.01-.006-.018-.006-.03V20.4zM56.975 20.4c0-.01.006-.018.006-.028a.773.773 0 0 0-.771-.772.773.773 0 0 0-.771.772c0 .01.005.018.006.028v4.102c-.001.012-.006.02-.006.03a.772.772 0 0 0 1.542 0c0-.01-.006-.018-.006-.03V20.4zM53.117 20.4c0-.01.006-.018.006-.028a.773.773 0 0 0-.771-.772.773.773 0 0 0-.772.772c0 .012.006.021.007.033V24.5c0 .012-.007.021-.007.033a.772.772 0 0 0 1.543 0c0-.01-.006-.018-.006-.03V20.4zM49.26 20.4c0-.01.006-.018.006-.028a.772.772 0 0 0-1.542 0c0 .01.005.018.006.028v4.102c-.001.012-.006.02-.006.03a.772.772 0 0 0 1.542 0c0-.01-.006-.018-.006-.03V20.4z" id="Shape" fill="#FFF"/><path d="M70.022 15.013a1.247 1.247 0 0 0-.611-.338l-.02-.006a1.205 1.205 0 0 0-.251-.026h-2.371c-.585 0-1.091.41-1.211.984l-.316 1.496-2.068 9.804c-.09.429-.59.834-1.03.834H46.391c-.44 0-.94-.405-1.03-.834l-2.384-11.3a1.24 1.24 0 0 0-1.212-.984h-2.37a1.24 1.24 0 1 0 0 2.48H40.5c.144 0 .284.113.312.253l1.546 7.322a2.529 2.529 0 0 1 1.386 2.25c0 .527-.166 1.015-.444 1.422.618 1.097 1.82 1.87 3.09 1.87h15.753c1.607 0 3.124-1.23 3.455-2.803l.27-1.278c-.658-1.075-1.052-2.364-1.052-3.874 0-1.728.48-3.596 1.995-5.162h2.329a1.242 1.242 0 0 0 .882-2.11z" id="Shape" fill="#FFF"/></g></g></g></svg>