<svg width="72" height="68" viewBox="0 0 72 68" xmlns="http://www.w3.org/2000/svg"><title>noun_60817_cc</title><g id="Landing-Page" fill="none" fill-rule="evenodd"><g id="noun_60817_cc" fill-rule="nonzero" fill="#F6CDD3"><path d="M70.199 46.968h-1.09V16.814c0-4.689-3.815-8.503-8.503-8.503h-.517V3.356h1.785a1.487 1.487 0 0 0 0-2.974H47.499a1.487 1.487 0 0 0 0 2.974h1.784V8.31h-36.02c-.395 0-.772.157-1.052.436l-7.295 7.294c-.28.28-.436.658-.436 1.051v15.531c0 .82.666 1.487 1.487 1.487h5.253v6.43a1.487 1.487 0 0 0 2.973 0v-6.43h6.824c.82 0 1.486-.666 1.486-1.487v-.147a3.74 3.74 0 0 1 3.737-3.737h18.115a3.74 3.74 0 0 1 3.736 3.737v14.492H1.805c-.82 0-1.486.666-1.486 1.486v11.699a7.24 7.24 0 0 0 7.233 7.233h62.647c.82 0 1.486-.666 1.486-1.487V48.455c0-.821-.666-1.487-1.486-1.487zM52.258 3.355h4.857V8.31h-4.857V3.355zm-7.9 22.41H26.244c-3.24 0-5.953 2.31-6.575 5.37H7.456V17.708l6.423-6.424h46.726c3.049 0 5.53 2.48 5.53 5.53v14.321h-15.2c-.624-3.06-3.336-5.37-6.576-5.37zm6.71 8.344h15.068v12.859H51.069v-12.86zm17.644 30.304H7.552a4.264 4.264 0 0 1-4.259-4.259V49.942h65.419v14.47z" id="Shape"/><path d="M55.727 27.665a6.761 6.761 0 0 0 6.753-6.753 6.761 6.761 0 0 0-6.753-6.754 6.761 6.761 0 0 0-6.754 6.754 6.761 6.761 0 0 0 6.754 6.753zm0-10.532a3.783 3.783 0 0 1 3.779 3.779 3.784 3.784 0 0 1-3.78 3.779 3.784 3.784 0 0 1-3.778-3.78 3.783 3.783 0 0 1 3.779-3.778z" id="Shape"/></g></g></svg>