<svg width="23" height="23" viewBox="0 0 23 23" xmlns="http://www.w3.org/2000/svg"><title>Facebook__x28_alt_x29_ Copy</title><g id="Mobile:-Landing-Page" fill="none" fill-rule="evenodd" opacity=".766"><g id="Mobile-Landing-Page" transform="translate(-60 -245)" fill-rule="nonzero" fill="#A5264D"><g id="BANNER" transform="translate(0 75)"><g id="cta" transform="translate(38 159)"><g id="002-facebook-logo" transform="translate(22.756 11.953)"><path d="M21.8 3.543C21.8 1.681 20.078 0 18.168 0H3.633C1.723 0 0 1.681 0 3.543v14.171c0 1.862 1.724 3.543 3.634 3.543H10.9v-8.03H8.236V9.684H10.9v-1.38c0-2.381 1.833-4.525 4.088-4.525h2.937v3.543h-2.937c-.322 0-.696.38-.696.95v1.412h3.633v3.543h-3.633v8.03h3.875c1.91 0 3.634-1.681 3.634-3.543V3.544z" id="Facebook__x28_alt_x29_-Copy"/></g></g></g></g></g></svg>