<svg width="81" height="82" viewBox="0 0 81 82" xmlns="http://www.w3.org/2000/svg"><title>Megáfono</title><g id="Landing-Page" fill="none" fill-rule="evenodd"><g transform="translate(-632 -52)" id="FOOTER-Copy"><g id="Megáfono" transform="translate(632.273 52.236)"><path d="M80.455 40.764c0 22.513-18.01 40.763-40.227 40.763C18.01 81.527 0 63.277 0 40.764 0 18.25 18.01 0 40.228 0c22.217 0 40.227 18.25 40.227 40.764" id="Fill-8" fill="#E63976"/><g id="Group-7" transform="translate(16.485 17.526)" fill-rule="nonzero" fill="#FFF"><path d="M22.187 4.361L.382 39.851l6.596 6.595 9.485-5.833.982.982a6.61 6.61 0 0 0 4.688 1.962c1.2 0 2.399-.327 3.489-.981 1.744-1.09 2.89-2.835 3.107-4.906.164-1.418-.163-2.835-.818-4.089l14.61-8.995L22.187 4.361zm.6 4.961l14.719 14.719-2.344 1.472-13.847-13.847 1.472-2.344zM4.307 39.36L19.68 14.337l12.756 12.757L7.414 42.52 4.307 39.36zm21.315-2.072c-.11 1.09-.763 2.017-1.69 2.617a3.536 3.536 0 0 1-4.361-.491l-.436-.436 6.05-3.762c.382.655.546 1.363.437 2.072z" id="Shape"/><path id="Rectangle-path" transform="rotate(-45 40.836 6.102)" d="M35.439 4.548h10.794v3.107H35.439z"/><path id="Rectangle-path" d="M38.106 13.356h8.395v3.107h-8.395zM30.474.436h3.107v8.395h-3.107z"/></g></g></g></g></svg>