<svg width="69" height="68" viewBox="0 0 69 68" xmlns="http://www.w3.org/2000/svg"><title>noun_350284_cc</title><g id="Landing-Page" fill="none" fill-rule="evenodd"><g id="noun_350284_cc" fill-rule="nonzero" fill="#F6CDD3"><path d="M16.361 16.361H.681L16.362.681v15.68zm.91 0H32.95L17.27.681v15.68zM0 33.631h15.68L0 17.951v15.68zm33.631-15.68l-15.68 15.68h15.68v-15.68zm.91 15.68H50.22l-15.68-15.68v15.68zm-.91.91h-15.68l15.68 15.679V34.54zm.91 15.679L50.22 34.54H34.54v15.68zm-.91 1.59h-15.68l15.68 15.68V51.81zm.91 15.68L50.22 51.81H34.54v15.68zM16.36 17.27H.681l15.68 15.68V17.27zm.91 15.68L32.95 17.27H17.27v15.68zm34.54 17.27l15.68-15.68H51.81v15.68zM50.9.682l-15.679 15.68h15.68V.681zm-33.63 50.22H32.95l-15.68-15.68v15.68zm33.63-15.68l-15.679 15.68h15.68v-15.68zm17.27-17.27l-15.679 15.68h15.68v-15.68zm-16.36-1.59h15.68L51.81.681v15.68zm-.91.908H35.223l15.68 15.68V17.27zm-34.54 17.27H.681l15.68 15.68V34.54zm35.45-1.59l15.68-15.68H51.81v15.68z" id="Shape"/></g></g></svg>