<svg width="75" height="66" viewBox="0 0 75 66" xmlns="http://www.w3.org/2000/svg"><title>Canasta Icon</title><g id="Landing-Page" fill="none" fill-rule="evenodd"><g id="Canasta-Icon" fill="#F6CDD3"><path d="M59.091 20.4C58.358 9.018 48.92.006 37.352.006 25.786.006 16.35 9.018 15.615 20.4v14.846a3.362 3.362 0 0 0 3.365 3.364 3.362 3.362 0 0 0 3.366-3.363V21.82c0-8.293 6.719-15.013 15.006-15.013 8.289 0 15.008 6.72 15.008 15.013v13.425a3.363 3.363 0 0 0 3.367 3.364 3.362 3.362 0 0 0 3.364-3.363V20.4z" id="Fill-1"/><path d="M74.477 32.327a2.859 2.859 0 0 0-2.859-2.856h-5.466a2.856 2.856 0 0 0-2.793 2.268L57.86 57.798c-.207.988-1.36 1.923-2.375 1.923H19.157c-1.012 0-2.168-.935-2.376-1.923l-5.497-26.059a2.856 2.856 0 0 0-2.795-2.268H3.022a2.859 2.859 0 1 0 0 5.718h2.55a.77.77 0 0 1 .721.587l4.895 23.198c.764 3.625 4.264 6.463 7.969 6.463h36.329c3.707 0 7.205-2.838 7.97-6.463l4.891-23.198a.77.77 0 0 1 .722-.587h2.55a2.86 2.86 0 0 0 2.858-2.862" id="Fill-3"/><path id="Fill-6" d="M25.773 35.19h23.16v-5.72h-23.16z"/><path d="M52.46 42.747c0-.025.014-.044.014-.067 0-.977-.796-1.779-1.777-1.779-.98 0-1.778.802-1.778 1.779 0 .023.012.042.015.067v9.459c-.003.027-.015.047-.015.07 0 .981.798 1.779 1.778 1.779.981 0 1.777-.798 1.777-1.779 0-.023-.014-.043-.014-.07v-9.46z" id="Fill-8"/><path d="M43.565 42.747c0-.025.014-.044.014-.067 0-.977-.796-1.779-1.776-1.779-.981 0-1.779.802-1.779 1.779 0 .023.012.042.014.067v9.459c-.002.027-.014.047-.014.07 0 .981.798 1.779 1.779 1.779a1.78 1.78 0 0 0 1.776-1.779c0-.023-.014-.043-.014-.07v-9.46z" id="Fill-9"/><path d="M34.67 42.747c0-.025.013-.044.013-.067 0-.977-.798-1.779-1.779-1.779-.98 0-1.778.802-1.778 1.779 0 .027.014.05.017.078v9.44c-.003.027-.017.05-.017.078 0 .981.798 1.779 1.778 1.779a1.78 1.78 0 0 0 1.779-1.779c0-.023-.014-.043-.014-.07v-9.46z" id="Fill-10"/><path d="M25.773 42.747c0-.025.014-.044.014-.067 0-.977-.796-1.779-1.777-1.779-.981 0-1.778.802-1.778 1.779 0 .023.013.042.015.067v9.459c-.002.027-.015.047-.015.07 0 .981.797 1.779 1.778 1.779a1.78 1.78 0 0 0 1.777-1.779c0-.023-.014-.043-.014-.07v-9.46z" id="Fill-11"/></g></g></svg>