<svg width="26" height="26" viewBox="0 0 26 26" xmlns="http://www.w3.org/2000/svg"><title>002-facebook-logo</title><g id="Mobile:-Landing-Page" fill="none" fill-rule="evenodd"><g id="Mobile-Landing-Page" transform="translate(-34 -4311)" fill-rule="nonzero" fill="#E52E6A"><g id="INVITE" transform="translate(0 3854)"><g id="Group-5" transform="translate(34 457)"><g id="002-facebook-logo"><path d="M25.605 4.268C25.605 2.025 23.581 0 21.338 0H4.268C2.025 0 0 2.025 0 4.268v17.07c0 2.242 2.025 4.267 4.268 4.267h8.535v-9.673h-3.13v-4.267h3.13v-1.663c0-2.868 2.153-5.45 4.8-5.45h3.45V8.82h-3.45c-.377 0-.817.458-.817 1.144v1.7h4.267v4.268h-4.267v9.673h4.552c2.243 0 4.267-2.025 4.267-4.268V4.267z" id="Facebook__x28_alt_x29_-Copy"/></g></g></g></g></g></svg>