<svg width="39" height="23" viewBox="0 0 39 23" xmlns="http://www.w3.org/2000/svg"><title>Shape</title><g id="Landing-Page" fill="none" fill-rule="evenodd"><g transform="translate(-727 -354)" id="FOOTER-Copy" fill-rule="nonzero" fill="#E52E6A"><g id="Group-5" transform="translate(727 354)"><path d="M1.743 0c-.126 0-.25.016-.368.04l16.91 14.093c.417.347 1.353.347 1.77 0L36.965.04A1.79 1.79 0 0 0 36.599 0H1.743zM.082 1.253c-.046.156-.082.319-.082.49v19.17c0 .171.036.334.082.49l12.526-9.721L.082 1.252zm38.177 0L25.733 11.682l12.526 9.721c.046-.156.082-.319.082-.49V1.743c0-.171-.036-.334-.082-.49zM13.97 12.826l-12.58 9.79c.113.022.233.04.354.04h34.855c.12 0 .24-.018.354-.04l-12.58-9.79-3.2 2.655a3.148 3.148 0 0 1-4.003 0l-3.2-2.655z" id="Shape"/></g></g></g></svg>