<?xml version="1.0" encoding="UTF-8"?>
<svg width="219px" height="31px" viewBox="0 0 219 31" version="1.1" xmlns="http://www.w3.org/2000/svg" xmlns:xlink="http://www.w3.org/1999/xlink">
    <!-- Generator: Sketch 45.2 (43514) - http://www.bohemiancoding.com/sketch -->
    <title>canastarosa_logoGray</title>
    <desc>Created with Sketch.</desc>
    <defs></defs>
    <g id="Landing-Page" stroke="none" stroke-width="1" fill="none" fill-rule="evenodd">
        <g transform="translate(-531.000000, -23.000000)" id="Group" fill-rule="nonzero">
            <g transform="translate(-1.000000, 0.000000)">
                <g id="canastarosa_logoGray" transform="translate(532.000000, 23.000000)">
                    <path d="M138.117719,25.6734759 L138.117719,25.6665645 L137.597632,25.6665645 C136.990288,25.6665645 136.642987,25.3641882 136.642987,24.7127832 L136.642987,14.2583385 C136.642987,9.57323372 134.994604,5.88683464 128.097833,5.88683464 C126.187678,5.88683464 120.982486,6.53651172 120.982486,9.57409766 L120.982486,10.5719395 C120.982486,11.3503424 121.613157,11.981013 122.393288,11.981013 C123.170827,11.981013 123.802361,11.3512064 123.802361,10.5719395 L123.802361,10.2678353 C123.802361,8.66351302 126.969537,8.35940885 128.054636,8.35940885 C132.045139,8.35940885 133.693522,9.96373112 133.693522,14.52011 L133.693522,14.7801536 L132.478833,14.7801536 C128.704313,14.7801536 119.116393,15.0410612 119.116393,22.2842695 C119.116393,26.6220736 122.890913,28.7482109 126.535843,28.7482109 C132.001079,28.7482109 133.823976,24.0199095 133.779915,24.0199095 L133.868036,24.0199095 C133.868036,24.0199095 133.823976,24.6695866 133.823976,25.6242318 C133.823976,27.4030684 134.561774,28.2263958 136.42614,28.2263958 L138.118583,28.2263958 L138.118583,28.2229401 C138.823552,28.2229401 139.394611,27.6510169 139.394611,26.9469121 C139.394611,26.2428073 138.823552,25.6734759 138.117719,25.6734759 Z M133.693522,18.1209798 C133.693522,21.8937721 131.177751,26.2324401 127.013598,26.2324401 C123.760029,26.2324401 122.153979,24.1503633 122.153979,22.1106191 C122.153979,17.2086673 129.008417,17.123138 132.434773,17.123138 L133.693522,17.123138 L133.693522,18.1209798 Z" id="Shape" fill="#DBD9D6"></path>
                    <path d="M116.094357,25.7460462 C114.444247,25.7425905 111.201045,25.086002 111.201045,19.9767064 L111.201045,8.87085677 L115.58291,8.87085677 L115.58291,8.87085677 C116.26628,8.87085677 116.820061,8.31707617 116.820061,7.63456966 C116.820061,6.95206315 116.26628,6.39828255 115.58291,6.39828255 L115.58291,6.39828255 L111.201045,6.39828255 L111.201045,1.45313411 C111.201045,0.650541016 110.54964,0 109.747911,0 C108.944454,0 108.294777,0.650541016 108.294777,1.45313411 L108.293049,1.45313411 L108.293049,6.39914648 L106.472743,6.39914648 L106.472743,6.39914648 C106.471016,6.39914648 106.471016,6.39914648 106.471016,6.39914648 C105.789373,6.39914648 105.235592,6.95292708 105.235592,7.63543359 C105.235592,8.31880404 105.789373,8.8717207 106.471016,8.8717207 C106.471016,8.8717207 106.471016,8.8717207 106.472743,8.8717207 L106.472743,8.8717207 L108.25158,8.8717207 L108.25158,20.2816745 C108.25158,27.5698073 113.326318,28.3948626 115.843817,28.3948626 C115.93021,28.3948626 116.014012,28.3931348 116.095221,28.389679 C116.82438,28.389679 117.416174,27.7987493 117.416174,27.0687266 C117.41531,26.3378398 116.823516,25.7460462 116.094357,25.7460462 Z" id="Shape" fill="#DBD9D6"></path>
                    <path d="M91.2390254,11.6121139 C91.2390254,9.48684049 93.0610586,8.44580208 96.0977806,8.44580208 C97.5293164,8.44580208 99.8723008,9.05314648 99.8723008,10.6591966 L99.8723008,11.0488301 C99.8723008,11.8168659 100.494332,12.4363053 101.26064,12.4363053 C102.026948,12.4363053 102.648115,11.816002 102.648115,11.0488301 L102.648115,9.83500521 C102.648115,6.75508659 98.223054,5.88769857 96.0096595,5.88769857 C91.6286589,5.88769857 88.2446361,7.84018555 88.2446361,11.7866283 C88.2446361,18.8147174 100.478781,17.9473294 100.478781,22.7188275 C100.478781,25.0186152 98.3094473,26.1901074 95.8800697,26.1901074 C93.1275814,26.1901074 91.1465846,24.8389173 90.0753086,23.8669935 L90.0709889,23.8721771 C89.840319,23.6795202 89.547446,23.5602975 89.2243353,23.5602975 C88.487401,23.5602975 87.8904238,24.1572747 87.8904238,24.8933451 C87.8904238,25.3054408 88.0822168,25.6691563 88.3759538,25.914513 L88.373362,25.9179688 C89.5889147,27.0488561 92.0416185,28.7490749 95.8386009,28.7490749 C100.176405,28.7490749 103.474035,26.2773646 103.474035,22.6324342 C103.473171,15.387498 91.2390254,16.5157936 91.2390254,11.6121139 Z" id="Shape" fill="#DBD9D6"></path>
                    <path d="M20.0034883,25.0030645 C20.0034883,24.2756335 19.4142865,23.6890234 18.6877194,23.6890234 C18.3283236,23.6890234 18.004349,23.8324362 17.7667676,24.0674258 C16.6021868,24.9529564 14.6211901,26.0605176 11.9404082,26.0605176 C7.34256055,26.0605176 3.39352604,22.7196914 3.39352604,17.339985 C3.39352604,12.0475358 7.16804622,8.53392318 11.8522871,8.53392318 C13.6743203,8.53392318 16.8414961,9.4013112 16.8414961,11.2233444 L16.8414961,11.3969948 C16.8414961,12.1641667 17.4626634,12.7844701 18.2298353,12.7844701 C18.9961432,12.7844701 19.6164466,12.1633027 19.6164466,11.3969948 L19.6164466,10.5287428 C19.6164466,6.92873698 14.3248613,5.88769857 11.8514232,5.88769857 C5.34514909,5.88769857 0.355076172,10.6591966 0.355076172,17.339985 C0.355076172,24.1080306 5.30281641,28.7499388 11.8090905,28.7499388 C15.5343665,28.7499388 18.0795111,27.1758542 19.368498,26.1227207 C19.7469004,25.8911868 20.0034883,25.4773633 20.0034883,25.0030645 Z" id="Shape" fill="#DBD9D6"></path>
                    <path d="M85.0714128,25.6752038 L85.0714128,25.6682923 L84.5495977,25.6682923 C83.9422533,25.6682923 83.5958164,25.365916 83.5958164,24.7145111 L83.5958164,14.2592025 C83.5958164,9.57409766 81.9474336,5.88769857 75.0489342,5.88769857 C73.1405078,5.88769857 67.9353158,6.53737565 67.9353158,9.57496159 L67.9353158,10.5728034 C67.9353158,11.3512064 68.5659863,11.981877 69.3443893,11.981877 C70.1227923,11.981877 70.7551908,11.3520703 70.7551908,10.5728034 L70.7551908,10.2686992 C70.7551908,8.66437695 73.9223665,8.36027279 75.0057376,8.36027279 C78.9962409,8.36027279 80.6446237,9.96459505 80.6446237,14.520974 L80.6446237,14.7810176 L79.4316628,14.7810176 C77.604446,14.7810176 74.4182637,14.8440846 71.6148034,15.7287513 C71.6182591,15.7805872 71.6312181,15.8298314 71.6312181,15.8816673 C71.6312181,17.2570475 70.5124258,18.3758398 69.1387734,18.3758398 L67.3573451,18.3758398 C66.5590716,19.3762734 66.069222,20.6523014 66.069222,22.2851335 C66.069222,26.6229375 69.8437422,28.7490749 73.4869447,28.7490749 C78.9539082,28.7490749 80.7750775,24.0207734 80.7327448,24.0207734 L80.819138,24.0207734 C80.819138,24.0207734 80.7750775,24.6704505 80.7750775,25.6250957 C80.7750775,27.4039323 81.5137396,28.2272598 83.3789694,28.2272598 L85.0714128,28.2272598 L85.0714128,28.224668 C85.7746536,28.224668 86.3457129,27.6527448 86.3457129,26.94864 C86.3457129,26.2445352 85.7755176,25.6752038 85.0714128,25.6752038 Z M80.6454876,18.1227077 C80.6454876,21.8955 78.1297168,26.234168 73.9655632,26.234168 C70.7119941,26.234168 69.1076719,24.1520911 69.1076719,22.112347 C69.1076719,17.2103952 75.9621107,17.1248659 79.3884661,17.1248659 L80.6454876,17.1248659 L80.6454876,18.1227077 Z" id="Shape" fill="#DBD9D6"></path>
                    <path d="M63.7072311,10.7093047 C63.389304,5.77452344 59.2959928,1.86609375 54.2808659,1.86609375 C49.2657389,1.86609375 45.1732917,5.77365951 44.8553646,10.7093047 L44.8553646,15.6121204 L44.8553646,17.1464642 C44.8553646,17.953377 45.5084974,18.6056458 46.3136823,18.6056458 C47.1205951,18.6056458 47.7728639,17.952513 47.7728639,17.1464642 L47.7728639,15.6121204 L47.7728639,11.3252884 C47.7728639,7.72960221 50.6869076,4.81555859 54.280002,4.81555859 C57.8739603,4.81555859 60.78714,7.72960221 60.78714,11.3252884 L60.7880039,11.3252884 L60.7880039,15.6121204 L60.7880039,17.1464642 C60.7880039,17.953377 61.4411367,18.6056458 62.2471855,18.6056458 C63.0532344,18.6056458 63.7055033,17.952513 63.7055033,17.1464642 L63.7055033,15.6121204 L63.7055033,10.7093047 L63.7072311,10.7093047 Z" id="Shape" fill="#DBD9D6"></path>
                    <path d="M41.2164818,25.6752038 L41.2164818,25.6682923 L40.6946667,25.6682923 C40.0873223,25.6682923 39.7408854,25.365916 39.7408854,24.7145111 L39.7408854,18.3758398 L39.3935846,18.3758398 C38.0190684,18.3758398 36.90114,17.2570475 36.90114,15.8816673 C36.90114,14.5088789 38.0190684,13.3909505 39.3935846,13.3909505 L39.721015,13.3909505 C39.5136712,9.12658073 37.6596725,5.88769857 31.1948672,5.88769857 C29.2864408,5.88769857 24.0812487,6.53737565 24.0812487,9.57496159 L24.0812487,10.5728034 C24.0812487,11.3512064 24.7119193,11.981877 25.4903223,11.981877 C26.2687253,11.981877 26.9011237,11.3520703 26.9011237,10.5728034 L26.9011237,10.2686992 C26.9011237,8.66437695 30.0682995,8.36027279 31.1516706,8.36027279 C35.1421738,8.36027279 36.7905566,9.96459505 36.7905566,14.520974 L36.7905566,14.7810176 L35.5775957,14.7810176 C31.8030755,14.7810176 22.2151549,15.0419251 22.2151549,22.2859974 C22.2151549,26.6238014 25.9896751,28.7499388 29.6328776,28.7499388 C35.0998411,28.7499388 36.9210104,24.0216374 36.8786777,24.0216374 L36.965071,24.0216374 C36.965071,24.0216374 36.9210104,24.6713145 36.9210104,25.6259596 C36.9210104,27.4047962 37.6596725,28.2281237 39.5249023,28.2281237 L41.2173457,28.2281237 L41.2173457,28.224668 C41.9205866,28.224668 42.4916458,27.6527448 42.4916458,26.94864 C42.4916458,26.2445352 41.9205866,25.6752038 41.2164818,25.6752038 Z M36.7905566,18.1227077 C36.7905566,21.8955 34.2747858,26.234168 30.1106322,26.234168 C26.8570632,26.234168 25.2527409,24.1520911 25.2527409,22.112347 C25.2527409,17.2103952 32.1071797,17.1248659 35.5335352,17.1248659 L36.7905566,17.1248659 L36.7905566,18.1227077 Z" id="Shape" fill="#DBD9D6"></path>
                    <path d="M217.188258,25.6752038 L217.188258,25.6682923 L216.668171,25.6682923 C216.060827,25.6682923 215.713526,25.365916 215.713526,24.7145111 L215.713526,14.2592025 C215.713526,9.57409766 214.065143,5.88769857 207.168372,5.88769857 C205.258217,5.88769857 200.053025,6.53737565 200.053025,9.57496159 L200.053025,10.5728034 C200.053025,11.3512064 200.683696,11.981877 201.463827,11.981877 C202.241366,11.981877 202.8729,11.3520703 202.8729,10.5728034 L202.8729,10.2686992 C202.8729,8.66437695 206.040076,8.36027279 207.125175,8.36027279 C211.115678,8.36027279 212.764061,9.96459505 212.764061,14.520974 L212.764061,14.7810176 L211.549372,14.7810176 C207.774852,14.7810176 198.186932,15.0419251 198.186932,22.2859974 C198.186932,26.6238014 201.961452,28.7499388 205.606382,28.7499388 C211.071618,28.7499388 212.894515,24.0216374 212.850454,24.0216374 L212.938576,24.0216374 C212.938576,24.0216374 212.894515,24.6713145 212.894515,25.6259596 C212.894515,27.4047962 213.632313,28.2281237 215.496679,28.2281237 L217.189122,28.2281237 L217.189122,28.224668 C217.894091,28.224668 218.46515,27.6527448 218.46515,26.94864 C218.46515,26.2445352 217.893227,25.6752038 217.188258,25.6752038 Z M212.763197,18.1227077 C212.763197,21.8955 210.247426,26.234168 206.083273,26.234168 C202.829704,26.234168 201.223654,24.1520911 201.223654,22.112347 C201.223654,17.2103952 208.078092,17.1248659 211.504448,17.1248659 L212.763197,17.1248659 L212.763197,18.1227077 Z" id="Shape" fill="#FFFFFF"></path>
                    <path d="M183.658182,11.6121139 C183.658182,9.48684049 185.480215,8.44580208 188.517801,8.44580208 C189.948473,8.44580208 192.292322,9.05314648 192.292322,10.6591966 L192.292322,11.0488301 C192.292322,11.8168659 192.913489,12.4363053 193.680661,12.4363053 C194.446969,12.4363053 195.067272,11.816002 195.067272,11.0488301 L195.067272,9.83500521 C195.067272,6.75508659 190.643075,5.88769857 188.428816,5.88769857 C184.04868,5.88769857 180.663793,7.84018555 180.663793,11.7866283 C180.663793,18.8147174 192.898802,17.9473294 192.898802,22.7188275 C192.898802,25.0186152 190.728604,26.1901074 188.299227,26.1901074 C185.546738,26.1901074 183.565742,24.8389173 182.494465,23.8669935 L182.49101,23.8721771 C182.259476,23.6795202 181.966603,23.5602975 181.644356,23.5602975 C180.906558,23.5602975 180.309581,24.1572747 180.309581,24.8933451 C180.309581,25.3054408 180.502238,25.6691563 180.795111,25.914513 L180.793383,25.9179688 C182.008072,27.0488561 184.461639,28.7490749 188.258622,28.7490749 C192.596426,28.7490749 195.894055,26.2773646 195.894055,22.6324342 C195.893191,15.387498 183.658182,16.5157936 183.658182,11.6121139 Z" id="Shape" fill="#FFFFFF"></path>
                    <path d="M166.262906,5.88683464 C172.63959,5.88683464 177.802449,10.7455898 177.802449,17.2086673 C177.802449,23.8030625 172.638726,28.7482109 166.304374,28.7482109 C159.92769,28.7482109 154.766559,23.8021986 154.766559,17.2086673 C154.767423,10.7455898 159.928554,5.88683464 166.262906,5.88683464 Z M166.305238,26.1037142 C170.947146,26.1037142 174.765727,22.2851335 174.765727,17.2095313 C174.765727,12.2643828 170.947146,8.57711979 166.305238,8.57711979 C161.620997,8.57711979 157.804145,12.2652467 157.804145,17.2095313 C157.804145,22.2851335 161.620997,26.1037142 166.305238,26.1037142 Z" id="Shape" fill="#FFFFFF"></path>
                    <path d="M152.858996,6.1909388 C149.433505,6.1909388 147.004127,8.7058457 145.963089,12.0043392 L145.874967,12.0043392 C145.874967,12.0043392 145.963089,11.266541 145.963089,10.3559564 L145.963089,8.88036003 C145.963089,7.14558398 145.138033,6.40864974 143.316,6.40864974 L141.363513,6.40864974 L141.363513,6.40864974 C141.363513,6.40864974 141.363513,6.40864974 141.361785,6.40864974 C140.655089,6.40864974 140.083165,6.98143685 140.083165,7.68726953 C140.083165,8.39483008 140.655089,8.96761719 141.361785,8.96761719 C141.363513,8.96761719 141.363513,8.96761719 141.363513,8.96761719 L141.363513,8.96761719 L142.102175,8.96761719 C142.707792,8.96761719 143.055956,9.31405404 143.055956,9.92139844 L143.055956,26.7551191 C143.055956,27.5698073 143.716001,28.2298516 144.530689,28.2298516 C145.345377,28.2298516 146.007149,27.5698073 146.007149,26.7551191 L146.007149,19.0324284 C146.007149,17.6440892 146.179072,16.1684928 146.612766,14.7810176 C147.559635,11.6000189 149.824002,9.18619206 152.858996,9.14126758 C153.673684,9.14126758 154.333729,8.48122331 154.333729,7.66653516 C154.333729,6.85184701 153.673684,6.1909388 152.858996,6.1909388 Z" id="Shape" fill="#FFFFFF"></path>
                    <path d="M60.8320645,20.4000332 C60.8320645,20.389666 60.838112,20.3818906 60.838112,20.3715234 C60.838112,19.9481966 60.493403,19.6000319 60.0674844,19.6000319 C59.6415658,19.6000319 59.2959928,19.9473327 59.2959928,20.3715234 C59.2959928,20.3818906 59.3011764,20.389666 59.3020404,20.4000332 L59.3020404,24.5019837 C59.3011764,24.5140788 59.2959928,24.5218542 59.2959928,24.5322214 C59.2959928,24.957276 59.6415658,25.3037129 60.0674844,25.3037129 C60.493403,25.3037129 60.838112,24.95814 60.838112,24.5322214 C60.838112,24.5218542 60.8320645,24.5140788 60.8320645,24.5019837 L60.8320645,20.4000332 Z" id="Shape" fill="#FFFFFF"></path>
                    <path d="M56.9746068,20.4000332 C56.9746068,20.389666 56.9806543,20.3818906 56.9806543,20.3715234 C56.9806543,19.9481966 56.6359453,19.6000319 56.2100267,19.6000319 C55.7841081,19.6000319 55.4385352,19.9481966 55.4385352,20.3715234 C55.4385352,20.3818906 55.4437187,20.389666 55.4445827,20.4000332 L55.4445827,24.5019837 C55.4437187,24.5140788 55.4385352,24.5218542 55.4385352,24.5322214 C55.4385352,24.957276 55.7841081,25.3037129 56.2100267,25.3037129 C56.6359453,25.3037129 56.9806543,24.95814 56.9806543,24.5322214 C56.9806543,24.5218542 56.9746068,24.5140788 56.9746068,24.5019837 L56.9746068,20.4000332 Z" id="Shape" fill="#FFFFFF"></path>
                    <path d="M53.1171491,20.4000332 C53.1171491,20.389666 53.1231966,20.3818906 53.1231966,20.3715234 C53.1231966,19.9481966 52.7776237,19.6000319 52.3517051,19.6000319 C51.9257865,19.6000319 51.5802135,19.9473327 51.5802135,20.3715234 C51.5802135,20.3836185 51.5862611,20.3931217 51.587125,20.4052168 L51.587125,24.498528 C51.5862611,24.510623 51.5802135,24.5201263 51.5802135,24.5322214 C51.5802135,24.957276 51.9257865,25.3037129 52.3517051,25.3037129 C52.7776237,25.3037129 53.1231966,24.95814 53.1231966,24.5322214 C53.1231966,24.5218542 53.1171491,24.5140788 53.1171491,24.5019837 L53.1171491,20.4000332 Z" id="Shape" fill="#FFFFFF"></path>
                    <path d="M49.2596914,20.4000332 C49.2596914,20.389666 49.2657389,20.3818906 49.2657389,20.3715234 C49.2657389,19.9481966 48.920166,19.6000319 48.4942474,19.6000319 C48.0683288,19.6000319 47.7236198,19.9473327 47.7236198,20.3715234 C47.7236198,20.3818906 47.7288034,20.389666 47.7296673,20.4000332 L47.7296673,24.5019837 C47.7288034,24.5140788 47.7236198,24.5218542 47.7236198,24.5322214 C47.7236198,24.957276 48.0683288,25.3037129 48.4942474,25.3037129 C48.920166,25.3037129 49.2657389,24.95814 49.2657389,24.5322214 C49.2657389,24.5218542 49.2596914,24.5140788 49.2596914,24.5019837 L49.2596914,20.4000332 Z" id="Shape" fill="#FFFFFF"></path>
                    <rect id="Rectangle-path" fill="#FFFFFF" x="49.2596914" y="14.6427884" width="10.042349" height="2.48034961"></rect>
                    <path d="M60.8320645,20.4000332 C60.8320645,20.389666 60.838112,20.3818906 60.838112,20.3715234 C60.838112,19.9481966 60.493403,19.6000319 60.0674844,19.6000319 C59.6415658,19.6000319 59.2959928,19.9473327 59.2959928,20.3715234 C59.2959928,20.3818906 59.3011764,20.389666 59.3020404,20.4000332 L59.3020404,24.5019837 C59.3011764,24.5140788 59.2959928,24.5218542 59.2959928,24.5322214 C59.2959928,24.957276 59.6415658,25.3037129 60.0674844,25.3037129 C60.493403,25.3037129 60.838112,24.95814 60.838112,24.5322214 C60.838112,24.5218542 60.8320645,24.5140788 60.8320645,24.5019837 L60.8320645,20.4000332 Z" id="Shape" fill="#FFFFFF"></path>
                    <path d="M56.9746068,20.4000332 C56.9746068,20.389666 56.9806543,20.3818906 56.9806543,20.3715234 C56.9806543,19.9481966 56.6359453,19.6000319 56.2100267,19.6000319 C55.7841081,19.6000319 55.4385352,19.9481966 55.4385352,20.3715234 C55.4385352,20.3818906 55.4437187,20.389666 55.4445827,20.4000332 L55.4445827,24.5019837 C55.4437187,24.5140788 55.4385352,24.5218542 55.4385352,24.5322214 C55.4385352,24.957276 55.7841081,25.3037129 56.2100267,25.3037129 C56.6359453,25.3037129 56.9806543,24.95814 56.9806543,24.5322214 C56.9806543,24.5218542 56.9746068,24.5140788 56.9746068,24.5019837 L56.9746068,20.4000332 Z" id="Shape" fill="#FFFFFF"></path>
                    <path d="M53.1171491,20.4000332 C53.1171491,20.389666 53.1231966,20.3818906 53.1231966,20.3715234 C53.1231966,19.9481966 52.7776237,19.6000319 52.3517051,19.6000319 C51.9257865,19.6000319 51.5802135,19.9473327 51.5802135,20.3715234 C51.5802135,20.3836185 51.5862611,20.3931217 51.587125,20.4052168 L51.587125,24.498528 C51.5862611,24.510623 51.5802135,24.5201263 51.5802135,24.5322214 C51.5802135,24.957276 51.9257865,25.3037129 52.3517051,25.3037129 C52.7776237,25.3037129 53.1231966,24.95814 53.1231966,24.5322214 C53.1231966,24.5218542 53.1171491,24.5140788 53.1171491,24.5019837 L53.1171491,20.4000332 Z" id="Shape" fill="#FFFFFF"></path>
                    <path d="M49.2596914,20.4000332 C49.2596914,20.389666 49.2657389,20.3818906 49.2657389,20.3715234 C49.2657389,19.9481966 48.920166,19.6000319 48.4942474,19.6000319 C48.0683288,19.6000319 47.7236198,19.9473327 47.7236198,20.3715234 C47.7236198,20.3818906 47.7288034,20.389666 47.7296673,20.4000332 L47.7296673,24.5019837 C47.7288034,24.5140788 47.7236198,24.5218542 47.7236198,24.5322214 C47.7236198,24.957276 48.0683288,25.3037129 48.4942474,25.3037129 C48.920166,25.3037129 49.2657389,24.95814 49.2657389,24.5322214 C49.2657389,24.5218542 49.2596914,24.5140788 49.2596914,24.5019837 L49.2596914,20.4000332 Z" id="Shape" fill="#FFFFFF"></path>
                    <path d="M70.0217122,15.0134154 L70.0217122,15.0134154 L70.0217122,15.0134154 C69.8575651,14.8475404 69.6467656,14.7283177 69.4109121,14.6747539 C69.4040007,14.673026 69.3970892,14.6695703 69.3910417,14.6687064 C69.309832,14.6514277 69.2260306,14.6427884 69.1396374,14.6427884 L66.7690072,14.6427884 C66.184125,14.6427884 65.6778607,15.0531562 65.5577741,15.6268073 L65.2424388,17.123138 L65.2424388,17.123138 L63.1741849,26.9270417 C63.0843359,27.3555521 62.5832552,27.7607363 62.1443776,27.7607363 L46.3905723,27.7607363 C45.9516947,27.7607363 45.4506139,27.3555521 45.360765,26.9270417 L42.9771758,15.6268073 C42.8562253,15.0531562 42.3499609,14.6427884 41.7650788,14.6427884 L39.3953125,14.6427884 C38.7102142,14.6427884 38.1547057,15.1982969 38.1547057,15.8808034 C38.1547057,16.5659017 38.7102142,17.123138 39.3953125,17.123138 L40.5002819,17.123138 C40.6436947,17.123138 40.7836517,17.2363132 40.8121615,17.3762702 L42.3577363,24.6980964 C43.178472,25.1162396 43.7443477,25.9672129 43.7443477,26.94864 C43.7443477,27.4747747 43.5776087,27.9628965 43.3002865,28.3698086 C43.917998,29.4670026 45.1205918,30.2393581 46.3897083,30.2393581 L62.1426497,30.2393581 C63.7495638,30.2393581 65.2666289,29.0091185 65.5983789,27.4367617 L65.8679258,26.1590059 C65.2104733,25.0842741 64.8156562,23.7952871 64.8156562,22.2851335 C64.8156562,20.5572689 65.2968665,18.6894473 66.8113398,17.123138 L68.0329401,17.123138 L68.5884486,17.123138 L69.1396374,17.123138 C69.8230078,17.123138 70.3785163,16.5659017 70.3785163,15.8808034 C70.3776523,15.5430059 70.241151,15.2371738 70.0217122,15.0134154 Z" id="Shape" fill="#FFFFFF"></path>
                </g>
            </g>
        </g>
    </g>
</svg>