<?xml version="1.0" encoding="UTF-8"?>
<svg width="26px" height="26px" viewBox="0 0 26 26" version="1.1" xmlns="http://www.w3.org/2000/svg" xmlns:xlink="http://www.w3.org/1999/xlink">
    <!-- Generator: Sketch 45.2 (43514) - http://www.bohemiancoding.com/sketch -->
    <title>002-facebook-logo</title>
    <desc>Created with Sketch.</desc>
    <defs></defs>
    <g id="Mobile:-Landing-Page" stroke="none" stroke-width="1" fill="none" fill-rule="evenodd">
        <g id="Mobile-Landing-Page" transform="translate(-34.000000, -4311.000000)" fill-rule="nonzero" fill="#E52E6A">
            <g id="INVITE" transform="translate(0.000000, 3854.000000)">
                <g id="Group-5" transform="translate(34.000000, 457.000000)">
                    <g id="002-facebook-logo">
                        <path d="M25.6050593,4.26779438 C25.6050593,2.02536019 23.5805526,0 21.3375494,0 L4.26750988,0 C2.02450669,0 0,2.02536019 0,4.26779438 L0,21.3372649 C0,23.5796991 2.02450669,25.6050593 4.26779438,25.6050593 L12.8025296,25.6050593 L12.8025296,15.9320369 L9.67302239,15.9320369 L9.67302239,11.664527 L12.8025296,11.664527 L12.8025296,10.0019052 C12.8025296,7.13442302 14.9556306,4.55201054 17.6034783,4.55201054 L21.0530487,4.55201054 L21.0530487,8.81952042 L17.6034783,8.81952042 C17.2259459,8.81952042 16.7855389,9.27785098 16.7855389,9.96435107 L16.7855389,11.664527 L21.0530487,11.664527 L21.0530487,15.9320369 L16.7855389,15.9320369 L16.7855389,25.6050593 L21.3375494,25.6050593 C23.5805526,25.6050593 25.6050593,23.5796991 25.6050593,21.3372649 L25.6050593,4.26779438 Z" id="Facebook__x28_alt_x29_-Copy"></path>
                    </g>
                </g>
            </g>
        </g>
    </g>
</svg>