<?xml version="1.0" encoding="UTF-8"?>
<svg width="75px" height="66px" viewBox="0 0 75 66" version="1.1" xmlns="http://www.w3.org/2000/svg" xmlns:xlink="http://www.w3.org/1999/xlink">
    <!-- Generator: Sketch 45.2 (43514) - http://www.bohemiancoding.com/sketch -->
    <title>Canasta Icon</title>
    <desc>Created with Sketch.</desc>
    <defs></defs>
    <g id="Landing-Page" stroke="none" stroke-width="1" fill="none" fill-rule="evenodd">
        <g transform="translate(-995.000000, -1039.000000)" id="Canasta-Icon" fill="#F6CDD3">
            <g transform="translate(995.000000, 1039.000000)">
                <path d="M59.091445,20.4002733 C58.3580518,9.01828751 48.9195004,0.00572582641 37.3521515,0.00572582641 C25.7859539,0.00572582641 16.3485538,9.01828751 15.6151606,20.4002733 L15.6151606,31.7062717 L15.6151606,35.246592 C15.6151606,37.1059797 17.121092,38.6096084 18.9804797,38.6096084 C20.8398674,38.6096084 22.3457988,37.1059797 22.3457988,35.246592 L22.3457988,31.7062717 L22.3457988,21.8210067 C22.3457988,13.5280223 29.0649237,6.80774606 37.3521515,6.80774606 C45.6405306,6.80774606 52.3596555,13.5280223 52.3596555,21.8210067 L52.3608068,21.8210067 L52.3608068,31.7062717 L52.3608068,35.246592 C52.3608068,37.1059797 53.8667382,38.6096084 55.7272772,38.6096084 C57.5855136,38.6096084 59.091445,37.1059797 59.091445,35.246592 L59.091445,31.7062717 L59.091445,20.4002733 Z" id="Fill-1"></path>
                <path d="M74.4769286,32.3272957 C74.4769286,30.7511336 73.1966567,29.4708617 71.6181919,29.4708617 L66.1517071,29.4708617 C64.8046584,29.4708617 63.6360649,30.4160984 63.3585959,31.7389693 L57.8610254,57.7980292 C57.6537871,58.7858649 56.5001608,59.7207398 55.4858447,59.7207398 L19.1569776,59.7207398 C18.1449641,59.7207398 16.9890351,58.7858649 16.7806456,57.7980292 L11.2842264,31.7389693 C11.0067574,30.4160984 9.83816383,29.4708617 8.48881249,29.4708617 L3.02232771,29.4708617 C1.44386296,29.4708617 0.163591045,30.7511336 0.163591045,32.3272957 C0.163591045,33.9080631 1.44386296,35.1894864 3.02232771,35.1894864 L5.57135832,35.1894864 C5.90178821,35.1894864 6.22415884,35.4519882 6.29323826,35.7755101 L11.1875152,58.9735307 C11.9519941,62.5990489 15.452018,65.4370618 19.1569776,65.4370618 L55.4858447,65.4370618 C59.1931069,65.4370618 62.6908282,62.5990489 63.4564584,58.9735307 L68.3472814,35.7755101 C68.4152095,35.4519882 68.7387314,35.1894864 69.0691613,35.1894864 L71.6181919,35.1894864 C73.1966567,35.1894864 74.4769286,33.9080631 74.4769286,32.3272957" id="Fill-3"></path>
                <polygon id="Fill-6" points="25.7725985 35.1892561 48.9326255 35.1892561 48.9326255 29.4706314 25.7725985 29.4706314"></polygon>
                <path d="M52.4601661,42.7465447 C52.4601661,42.7223669 52.4739819,42.7027944 52.4739819,42.6797679 C52.4739819,41.7034454 51.6784173,40.9009728 50.6974895,40.9009728 C49.7165618,40.9009728 48.9186945,41.7034454 48.9186945,42.6797679 C48.9186945,42.7027944 48.931359,42.7223669 48.9336617,42.7465447 L48.9336617,52.2058199 C48.931359,52.2334517 48.9186945,52.2530242 48.9186945,52.2760507 C48.9186945,53.2569784 49.7165618,54.0548457 50.6974895,54.0548457 C51.6784173,54.0548457 52.4739819,53.2569784 52.4739819,52.2760507 C52.4739819,52.2530242 52.4601661,52.2334517 52.4601661,52.2058199 L52.4601661,42.7465447 Z" id="Fill-8"></path>
                <path d="M43.5654999,42.7465447 C43.5654999,42.7223669 43.5793158,42.7027944 43.5793158,42.6797679 C43.5793158,41.7034454 42.7825998,40.9009728 41.8028234,40.9009728 C40.8218956,40.9009728 40.0240283,41.7034454 40.0240283,42.6797679 C40.0240283,42.7027944 40.0355416,42.7223669 40.0378442,42.7465447 L40.0378442,52.2058199 C40.0355416,52.2334517 40.0240283,52.2530242 40.0240283,52.2760507 C40.0240283,53.2569784 40.8218956,54.0548457 41.8028234,54.0548457 C42.7825998,54.0548457 43.5793158,53.2569784 43.5793158,52.2760507 C43.5793158,52.2530242 43.5654999,52.2334517 43.5654999,52.2058199 L43.5654999,42.7465447 Z" id="Fill-9"></path>
                <path d="M34.6691068,42.7465447 C34.6691068,42.7223669 34.6829227,42.7027944 34.6829227,42.6797679 C34.6829227,41.7034454 33.8850554,40.9009728 32.9041276,40.9009728 C31.9243512,40.9009728 31.1264839,41.7034454 31.1264839,42.6797679 C31.1264839,42.7073996 31.1402998,42.7304261 31.1426024,42.7580579 L31.1426024,52.1977607 C31.1402998,52.2253924 31.1264839,52.2484189 31.1264839,52.2760507 C31.1264839,53.2569784 31.9243512,54.0548457 32.9041276,54.0548457 C33.8850554,54.0548457 34.6829227,53.2569784 34.6829227,52.2760507 C34.6829227,52.2530242 34.6691068,52.2334517 34.6691068,52.2058199 L34.6691068,42.7465447 Z" id="Fill-10"></path>
                <path d="M25.7734045,42.7465447 C25.7734045,42.7223669 25.7872204,42.7027944 25.7872204,42.6797679 C25.7872204,41.7034454 24.9905044,40.9009728 24.0095766,40.9009728 C23.0286488,40.9009728 22.2319329,41.7034454 22.2319329,42.6797679 C22.2319329,42.7027944 22.2445974,42.7223669 22.2469001,42.7465447 L22.2469001,52.2058199 C22.2445974,52.2334517 22.2319329,52.2530242 22.2319329,52.2760507 C22.2319329,53.2569784 23.0286488,54.0548457 24.0095766,54.0548457 C24.9905044,54.0548457 25.7872204,53.2569784 25.7872204,52.2760507 C25.7872204,52.2530242 25.7734045,52.2334517 25.7734045,52.2058199 L25.7734045,42.7465447 Z" id="Fill-11"></path>
            </g>
        </g>
    </g>
</svg>