<?xml version="1.0" encoding="UTF-8"?>
<svg width="72px" height="68px" viewBox="0 0 72 68" version="1.1" xmlns="http://www.w3.org/2000/svg" xmlns:xlink="http://www.w3.org/1999/xlink">
    <!-- Generator: Sketch 45.2 (43514) - http://www.bohemiancoding.com/sketch -->
    <title>noun_60817_cc</title>
    <desc>Created with Sketch.</desc>
    <defs></defs>
    <g id="Landing-Page" stroke="none" stroke-width="1" fill="none" fill-rule="evenodd">
        <g transform="translate(-213.000000, -1038.000000)" id="noun_60817_cc" fill-rule="nonzero" fill="#F6CDD3">
            <g transform="translate(213.000000, 1038.000000)">
                <path d="M70.1985142,46.9677245 L69.1089257,46.9677245 L69.1089257,16.813971 C69.1089257,12.125246 65.2937775,8.31115677 60.6061114,8.31115677 L60.0893775,8.31115677 L60.0893775,3.35559381 L61.873592,3.35559381 C62.6942247,3.35559381 63.3602609,2.68955767 63.3602609,1.86892492 C63.3602609,1.04829216 62.6942247,0.382256032 61.873592,0.382256032 L47.4992827,0.382256032 C46.67865,0.382256032 46.0126139,1.04829216 46.0126139,1.86892492 C46.0126139,2.68955767 46.67865,3.35559381 47.4992827,3.35559381 L49.2834972,3.35559381 L49.2834972,8.31115677 L13.2624842,8.31115677 C12.8675216,8.31115677 12.49056,8.46787115 12.2110154,8.74741573 L4.91638436,16.0409879 C4.63683979,16.3205325 4.4801254,16.698553 4.4801254,17.0924567 L4.4801254,32.6230639 C4.4801254,33.4436967 5.14616153,34.1097328 5.96679429,34.1097328 L11.2199028,34.1097328 L11.2199028,40.5392581 C11.2199028,41.3598909 11.8859389,42.025927 12.7065717,42.025927 C13.5272044,42.025927 14.1932406,41.3598909 14.1932406,40.5392581 L14.1932406,34.1097328 L21.0166696,34.1097328 C21.8373023,34.1097328 22.5033385,33.4436967 22.5033385,32.6230639 L22.5033385,32.4758795 C22.5033385,30.4152971 24.179547,28.7390885 26.2401294,28.7390885 L44.3554651,28.7390885 C46.4149886,28.7390885 48.0911972,30.4152971 48.0911972,32.4758795 L48.0911972,32.6220051 L48.0911972,46.9677245 L1.80539206,46.9677245 C0.984759306,46.9677245 0.318723173,47.6337606 0.318723173,48.4543934 L0.318723173,60.1529104 C0.318723173,64.141715 3.56313448,67.3861263 7.55193911,67.3861263 L70.1985142,67.3861263 C71.0191469,67.3861263 71.6851831,66.7200902 71.6851831,65.8994574 L71.6851831,48.4554523 C71.6851831,47.6337606 71.0191469,46.9677245 70.1985142,46.9677245 Z M52.2578938,3.35453493 L57.1149809,3.35453493 L57.1149809,8.31009789 L52.2578938,8.31009789 L52.2578938,3.35453493 Z M44.3586418,25.7657507 L26.2433061,25.7657507 C23.0020714,25.7657507 20.2902772,28.0751702 19.6676552,31.1353362 L7.45558094,31.1353362 L7.45558094,17.7076665 L13.8787529,11.2844945 L60.6050526,11.2844945 C63.6535709,11.2844945 66.134529,13.7643938 66.134529,16.813971 L66.134529,31.1353362 L50.9342926,31.1353362 C50.3106117,28.0751702 47.5988176,25.7657507 44.3586418,25.7657507 Z M51.0687705,34.1086739 L66.1355879,34.1086739 L66.1355879,46.9677245 L51.0687705,46.9677245 L51.0687705,34.1086739 Z M68.7118453,64.4127885 L7.55193911,64.4127885 C5.20334111,64.4127885 3.29311983,62.5015084 3.29311983,60.1539693 L3.29311983,49.9421212 L68.7118453,49.9421212 L68.7118453,64.4127885 L68.7118453,64.4127885 Z" id="Shape"></path>
                <path d="M55.7267879,27.6653832 C59.4508723,27.6653832 62.4803308,24.6359247 62.4803308,20.9118404 C62.4803308,17.187756 59.4508723,14.1582975 55.7267879,14.1582975 C52.0027035,14.1582975 48.9732451,17.187756 48.9732451,20.9118404 C48.9732451,24.6359247 52.0027035,27.6653832 55.7267879,27.6653832 Z M55.7267879,17.1326942 C57.8106657,17.1326942 59.5059341,18.8279626 59.5059341,20.9118404 C59.5059341,22.9957181 57.8096068,24.6909866 55.7267879,24.6909866 C53.643969,24.6909866 51.9476417,22.9957181 51.9476417,20.9118404 C51.9476417,18.8279626 53.6429102,17.1326942 55.7267879,17.1326942 Z" id="Shape"></path>
            </g>
        </g>
    </g>
</svg>