<?xml version="1.0" encoding="UTF-8"?>
<svg width="39px" height="23px" viewBox="0 0 39 23" version="1.1" xmlns="http://www.w3.org/2000/svg" xmlns:xlink="http://www.w3.org/1999/xlink">
    <!-- Generator: Sketch 45.2 (43514) - http://www.bohemiancoding.com/sketch -->
    <title>Shape</title>
    <desc>Created with Sketch.</desc>
    <defs></defs>
    <g id="Landing-Page" stroke="none" stroke-width="1" fill="none" fill-rule="evenodd">
        <g transform="translate(-695.000000, -3218.000000)" id="FOOTER-Copy" fill-rule="nonzero" fill="#E52E6A">
            <g transform="translate(-32.000000, 2864.000000)">
                <g id="Group-5" transform="translate(727.000000, 354.000000)">
                    <path d="M1.74276456,0 C1.61745979,0 1.49289569,0.0159462957 1.37512838,0.0408242598 L18.2854343,14.1327009 C18.7024343,14.4799903 19.638386,14.4799903 20.055386,14.1327009 L36.9656919,0.0408242598 C36.8479246,0.0159462957 36.7233605,0 36.5980558,0 L1.74276456,0 Z M0.0816920887,1.25261203 C0.0361623646,1.40859817 0,1.57167736 0,1.74277327 L0,20.9131878 C0,21.0842837 0.0361623646,21.2473629 0.0816920887,21.4033403 L12.6078124,11.6819818 L0.0816920887,1.25261203 Z M38.2591282,1.25261203 L25.733008,11.6819818 L38.2591282,21.4033403 C38.3046579,21.2473629 38.3408203,21.0842837 38.3408203,20.9131878 L38.3408203,1.74277327 C38.3408203,1.57167736 38.3046579,1.40859817 38.2591282,1.25261203 L38.2591282,1.25261203 Z M13.9693472,12.825671 L1.38876551,22.6150845 C1.50243733,22.6381761 1.62207811,22.6560395 1.74276456,22.6560395 L36.5980558,22.6560395 C36.7187422,22.6560395 36.838383,22.6381761 36.9520548,22.6150845 L24.3714731,12.825671 L21.1718881,15.4806421 C20.0217071,16.4383784 18.3191132,16.4383784 17.1689322,15.4806421 L13.9693472,12.825671 L13.9693472,12.825671 Z" id="Shape"></path>
                </g>
            </g>
        </g>
    </g>
</svg>