<?xml version="1.0" encoding="UTF-8"?>
<svg width="80px" height="80px" viewBox="0 0 80 80" version="1.1" xmlns="http://www.w3.org/2000/svg" xmlns:xlink="http://www.w3.org/1999/xlink">
    <!-- Generator: Sketch 46 (44423) - http://www.bohemiancoding.com/sketch -->
    <title>Icon: Canasta</title>
    <desc>Created with Sketch.</desc>
    <defs>
        <polygon id="path-1" points="0 48 53 48 53 0 0 0"></polygon>
    </defs>
    <g id="Symbols" stroke="none" stroke-width="1" fill="none" fill-rule="evenodd">
        <g id="Landing-Page:-Register-Form" transform="translate(-249.000000, 0.000000)">
            <g id="Group-9">
                <g id="Icon:-Canasta" transform="translate(249.000000, 0.000000)">
                    <circle id="Oval" fill="#FFFFFF" cx="40" cy="40" r="40"></circle>
                    <g id="Page-1" transform="translate(13.000000, 15.000000)">
                        <path d="M41.3835616,15.2151268 C40.8691785,6.72372204 34.2492206,0 26.1361788,0 C18.0239445,0 11.4047941,6.72372204 10.890411,15.2151268 L10.890411,23.6498419 L10.890411,26.2910588 C10.890411,27.6782344 11.9466326,28.8 13.2507594,28.8 C14.5548863,28.8 15.6111079,27.6782344 15.6111079,26.2910588 L15.6111079,23.6498419 L15.6111079,16.2750492 C15.6111079,10.0881599 20.3237298,5.07457203 26.1361788,5.07457203 C31.9494353,5.07457203 36.6620572,10.0881599 36.6620572,16.2750492 L36.6628647,16.2750492 L36.6628647,23.6498419 L36.6628647,26.2910588 C36.6628647,27.6782344 37.7190863,28.8 39.0240207,28.8 C40.32734,28.8 41.3835616,27.6782344 41.3835616,26.2910588 L41.3835616,23.6498419 L41.3835616,15.2151268 Z" id="Fill-1" fill="#E52E6A"></path>
                        <path d="M53,24.2065466 C53,23.0738795 52.0869148,22.1538462 50.9611595,22.1538462 L47.0624826,22.1538462 C46.1017724,22.1538462 45.2683358,22.8331154 45.0704459,23.7837614 L41.1495987,42.5104123 C41.0017972,43.2202942 40.1790351,43.8921171 39.4556285,43.8921171 L13.5460137,43.8921171 C12.8242494,43.8921171 11.9998451,43.2202942 11.8512224,42.5104123 L7.93119636,23.7837614 C7.73330648,22.8331154 6.89986986,22.1538462 5.93751743,22.1538462 L2.03884052,22.1538462 C0.913085242,22.1538462 0,23.0738795 0,24.2065466 C0,25.342523 0.913085242,26.2633838 2.03884052,26.2633838 L3.8567998,26.2633838 C4.09246119,26.2633838 4.32237474,26.4520237 4.37164193,26.6845142 L7.86222229,43.3551552 C8.40744585,45.9605375 10.9036501,48 13.5460137,48 L39.4556285,48 C42.0996344,48 44.5941964,45.9605375 45.1402411,43.3551552 L48.6283581,26.6845142 C48.6768041,26.4520237 48.9075388,26.2633838 49.1432002,26.2633838 L50.9611595,26.2633838 C52.0869148,26.2633838 53,25.342523 53,24.2065466" id="Fill-3" fill="#E52E6A"></path>
                        <mask id="mask-2" fill="white">
                            <use xlink:href="#path-1"></use>
                        </mask>
                        <g id="Clip-7"></g>
                        <polygon id="Fill-6" fill="#E52E6A" mask="url(#mask-2)" points="18.1506849 25.8461538 34.1232877 25.8461538 34.1232877 22.1538462 18.1506849 22.1538462"></polygon>
                        <path d="M37.7421393,31.7274748 C37.7421393,31.708472 37.7534247,31.6930887 37.7534247,31.6749907 C37.7534247,30.9076371 37.1035737,30.2769231 36.3023103,30.2769231 C35.5010469,30.2769231 34.8493151,30.9076371 34.8493151,31.6749907 C34.8493151,31.6930887 34.85966,31.708472 34.8615409,31.7274748 L34.8615409,39.1621182 C34.85966,39.1838357 34.8493151,39.199219 34.8493151,39.217317 C34.8493151,39.9882902 35.5010469,40.6153846 36.3023103,40.6153846 C37.1035737,40.6153846 37.7534247,39.9882902 37.7534247,39.217317 C37.7534247,39.199219 37.7421393,39.1838357 37.7421393,39.1621182 L37.7421393,31.7274748 Z" id="Fill-8" fill="#E52E6A" mask="url(#mask-2)"></path>
                        <path d="M31.9339201,31.7274748 C31.9339201,31.708472 31.9452055,31.6930887 31.9452055,31.6749907 C31.9452055,30.9076371 31.2944141,30.2769231 30.4940911,30.2769231 C29.6928277,30.2769231 29.0410959,30.9076371 29.0410959,31.6749907 C29.0410959,31.6930887 29.0505004,31.708472 29.0523813,31.7274748 L29.0523813,39.1621182 C29.0505004,39.1838357 29.0410959,39.199219 29.0410959,39.217317 C29.0410959,39.9882902 29.6928277,40.6153846 30.4940911,40.6153846 C31.2944141,40.6153846 31.9452055,39.9882902 31.9452055,39.217317 C31.9452055,39.199219 31.9339201,39.1838357 31.9339201,39.1621182 L31.9339201,31.7274748 Z" id="Fill-9" fill="#E52E6A" mask="url(#mask-2)"></path>
                        <path d="M25.3996772,31.7274748 C25.3996772,31.708472 25.4109589,31.6930887 25.4109589,31.6749907 C25.4109589,30.9076371 24.759438,30.2769231 23.958434,30.2769231 C23.1583702,30.2769231 22.5068493,30.9076371 22.5068493,31.6749907 C22.5068493,31.6967083 22.5181311,31.7148063 22.5200114,31.7365238 L22.5200114,39.1557839 C22.5181311,39.1775014 22.5068493,39.1955994 22.5068493,39.217317 C22.5068493,39.9882902 23.1583702,40.6153846 23.958434,40.6153846 C24.759438,40.6153846 25.4109589,39.9882902 25.4109589,39.217317 C25.4109589,39.199219 25.3996772,39.1838357 25.3996772,39.1621182 L25.3996772,31.7274748 Z" id="Fill-10" fill="#E52E6A" mask="url(#mask-2)"></path>
                        <path d="M18.8654269,31.7274748 C18.8654269,31.708472 18.8767123,31.6930887 18.8767123,31.6749907 C18.8767123,30.9076371 18.2259209,30.2769231 17.4246575,30.2769231 C16.6233941,30.2769231 15.9726027,30.9076371 15.9726027,31.6749907 C15.9726027,31.6930887 15.9829477,31.708472 15.9848286,31.7274748 L15.9848286,39.1621182 C15.9829477,39.1838357 15.9726027,39.199219 15.9726027,39.217317 C15.9726027,39.9882902 16.6233941,40.6153846 17.4246575,40.6153846 C18.2259209,40.6153846 18.8767123,39.9882902 18.8767123,39.217317 C18.8767123,39.199219 18.8654269,39.1838357 18.8654269,39.1621182 L18.8654269,31.7274748 Z" id="Fill-11" fill="#E52E6A" mask="url(#mask-2)"></path>
                    </g>
                </g>
            </g>
        </g>
    </g>
</svg>