<?xml version="1.0" encoding="UTF-8"?>
<svg width="69px" height="68px" viewBox="0 0 69 68" version="1.1" xmlns="http://www.w3.org/2000/svg" xmlns:xlink="http://www.w3.org/1999/xlink">
    <!-- Generator: Sketch 45.2 (43514) - http://www.bohemiancoding.com/sketch -->
    <title>noun_350284_cc</title>
    <desc>Created with Sketch.</desc>
    <defs></defs>
    <g id="Landing-Page" stroke="none" stroke-width="1" fill="none" fill-rule="evenodd">
        <g transform="translate(-606.000000, -1038.000000)" id="noun_350284_cc" fill-rule="nonzero" fill="#F6CDD3">
            <g transform="translate(606.000000, 1038.000000)">
                <path d="M16.36125,16.36125 L0.68171875,16.36125 L16.36125,0.68171875 L16.36125,16.36125 Z M17.2702083,16.36125 L32.9497396,16.36125 L17.2702083,0.68171875 L17.2702083,16.36125 Z M0,33.6314583 L15.6795312,33.6314583 L0,17.9519271 L0,33.6314583 Z M33.6314583,17.9519271 L17.9519271,33.6314583 L33.6314583,33.6314583 L33.6314583,17.9519271 Z M34.5404167,33.6314583 L50.2199479,33.6314583 L34.5404167,17.9519271 L34.5404167,33.6314583 Z M33.6314583,34.5404167 L17.9519271,34.5404167 L33.6314583,50.2199479 L33.6314583,34.5404167 Z M34.5404167,50.2199479 L50.2199479,34.5404167 L34.5404167,34.5404167 L34.5404167,50.2199479 Z M33.6314583,51.810625 L17.9519271,51.810625 L33.6314583,67.4901563 L33.6314583,51.810625 Z M34.5404167,67.4901563 L50.2199479,51.810625 L34.5404167,51.810625 L34.5404167,67.4901563 Z M16.36125,17.2702083 L0.68171875,17.2702083 L16.36125,32.9497396 L16.36125,17.2702083 Z M17.2702083,32.9497396 L32.9497396,17.2702083 L17.2702083,17.2702083 L17.2702083,32.9497396 Z M51.810625,50.2199479 L67.4901562,34.5404167 L51.810625,34.5404167 L51.810625,50.2199479 Z M50.9016667,0.68171875 L35.2221354,16.36125 L50.9016667,16.36125 L50.9016667,0.68171875 Z M17.2702083,50.9016667 L32.9497396,50.9016667 L17.2702083,35.2221354 L17.2702083,50.9016667 Z M50.9016667,35.2221354 L35.2221354,50.9016667 L50.9016667,50.9016667 L50.9016667,35.2221354 Z M68.171875,17.9519271 L52.4923437,33.6314583 L68.171875,33.6314583 L68.171875,17.9519271 Z M51.810625,16.36125 L67.4901562,16.36125 L51.810625,0.68171875 L51.810625,16.36125 Z M50.9016667,17.2702083 L35.2221354,17.2702083 L50.9016667,32.9497396 L50.9016667,17.2702083 Z M16.36125,34.5404167 L0.68171875,34.5404167 L16.36125,50.2199479 L16.36125,34.5404167 Z M51.810625,32.9497396 L67.4901562,17.2702083 L51.810625,17.2702083 L51.810625,32.9497396 Z" id="Shape"></path>
            </g>
        </g>
    </g>
</svg>