<?xml version="1.0" encoding="UTF-8"?>
<svg width="88px" height="70px" viewBox="0 0 88 70" version="1.1" xmlns="http://www.w3.org/2000/svg" xmlns:xlink="http://www.w3.org/1999/xlink">
    <!-- Generator: Sketch 46 (44423) - http://www.bohemiancoding.com/sketch -->
    <title>icon_pay</title>
    <desc>Created with Sketch.</desc>
    <defs></defs>
    <g id="Landing-Page" stroke="none" stroke-width="1" fill="none" fill-rule="evenodd">
        <g transform="translate(-592.000000, -1051.000000)" id="FEATURES" fill-rule="nonzero" fill="#F4BBC3">
            <g transform="translate(-551.000000, 257.000000)">
                <g id="icon_pay" transform="translate(1143.000000, 794.000000)">
                    <path d="M84.1117414,49.2050013 L81.5642617,49.2050013 L81.5642617,42.8584757 C81.5642617,40.292859 80.2234829,37.9973072 78.3463925,36.5119501 L78.3463925,26.5195482 C78.3463925,24.0889639 76.4693022,22.1985095 74.0559003,22.1985095 L68.2905515,22.1985095 L59.1732555,1.9436406 C58.7710219,1.13344584 58.1006325,0.458283546 57.2961652,0.188218627 C56.4916979,-0.0818462909 55.5531527,-0.0818462909 54.6146076,0.323251086 L2.0560781,24.3590288 C0.313065639,25.1692236 -0.491401648,27.1947105 0.313065639,28.9501324 L13.8549316,58.7923059 L13.9890095,58.7923059 C14.5253211,60.5477279 16.1342556,61.8980525 18.1454239,61.8980525 L60.1118007,61.8980525 L60.1118007,66.2190911 C60.1118007,68.244578 61.7207353,70 63.8659814,70 L84.3798972,70 C86.3910654,70 88,68.3796105 88,66.2190911 L88,52.8508777 C87.7318442,50.8253908 86.1229097,49.2050013 84.1117414,49.2050013 Z M79.5530935,42.8584757 L79.5530935,49.2050013 L68.1564736,49.2050013 L68.1564736,42.8584757 C68.1564736,39.6176967 70.7039533,37.05208 73.9218225,37.05208 C77.0056137,37.05208 79.5530935,39.6176967 79.5530935,42.8584757 Z M66.0112275,22.063477 L37.184483,22.063477 L61.0503459,11.1258478 L66.0112275,22.063477 Z M2.86054538,26.2494832 L55.4190748,2.07867306 C55.8213085,1.9436406 56.0894643,1.9436406 56.4916979,2.07867306 C56.8939315,2.21370551 57.1620873,2.48377043 57.2961652,2.88886781 L60.2458786,9.50545831 L32.3576793,22.063477 L18.011346,22.063477 C15.5979441,22.063477 13.7208538,23.9539314 13.7208538,26.3845157 L13.7208538,30.5705219 L5.00579148,34.4864632 L2.0560781,28.0049052 C1.78792233,27.3297429 2.0560781,26.5195482 2.86054538,26.2494832 Z M13.7208538,53.6610724 L5.81025877,36.3769177 L13.7208538,32.8660737 L13.7208538,53.6610724 Z M59.9777228,52.8508777 L59.9777228,59.7375331 L18.011346,59.7375331 C16.804645,59.7375331 15.732022,58.6572734 15.732022,57.4419813 L15.732022,26.3845157 C15.732022,25.1692236 16.804645,24.0889639 18.011346,24.0889639 L74.0559003,24.0889639 C75.2626013,24.0889639 76.3352243,25.1692236 76.3352243,26.3845157 L76.3352243,35.4316905 C75.530757,35.1616255 74.7262898,35.0265931 73.9218225,35.0265931 C69.6313303,35.0265931 66.1453054,38.537437 66.1453054,42.8584757 L66.1453054,49.2050013 L63.5978256,49.2050013 C61.5866574,49.2050013 59.9777228,50.8253908 59.9777228,52.8508777 Z M85.720676,66.2190911 C85.720676,67.1643184 84.9162087,67.9745131 83.9776636,67.9745131 L63.5978256,67.9745131 C62.6592804,67.9745131 61.8548131,67.1643184 61.8548131,66.2190911 L61.8548131,52.8508777 C61.8548131,51.9056505 62.6592804,51.0954557 63.5978256,51.0954557 L84.1117414,51.0954557 C85.0502866,51.0954557 85.8547539,51.9056505 85.8547539,52.8508777 L85.8547539,66.2190911 L85.720676,66.2190911 Z" id="Shape"></path>
                    <rect id="Rectangle-path" x="67" y="55" width="14" height="2"></rect>
                    <rect id="Rectangle-path" x="67" y="61" width="14" height="2"></rect>
                    <rect id="Rectangle-path" x="24" y="51" width="2" height="2"></rect>
                    <rect id="Rectangle-path" x="20" y="51" width="2" height="2"></rect>
                    <rect id="Rectangle-path" x="49" y="51" width="2" height="2"></rect>
                    <rect id="Rectangle-path" x="54" y="51" width="2" height="2"></rect>
                    <rect id="Rectangle-path" x="44" y="51" width="2" height="2"></rect>
                    <rect id="Rectangle-path" x="40" y="51" width="2" height="2"></rect>
                    <rect id="Rectangle-path" x="35" y="51" width="2" height="2"></rect>
                    <rect id="Rectangle-path" x="29" y="51" width="2" height="2"></rect>
                    <path d="M22,39 L39,39 L39,29 L22,29 L22,39 Z M24.0564516,30.875 L36.9435484,30.875 L36.9435484,37.125 L24.0564516,37.125 L24.0564516,30.875 L24.0564516,30.875 Z" id="Shape"></path>
                    <rect id="Rectangle-path" x="48" y="38" width="16" height="2"></rect>
                    <rect id="Rectangle-path" x="56" y="31" width="16" height="2"></rect>
                </g>
            </g>
        </g>
    </g>
</svg>