<?xml version="1.0" encoding="UTF-8"?>
<svg width="23px" height="23px" viewBox="0 0 23 23" version="1.1" xmlns="http://www.w3.org/2000/svg" xmlns:xlink="http://www.w3.org/1999/xlink">
    <!-- Generator: Sketch 45.2 (43514) - http://www.bohemiancoding.com/sketch -->
    <title>Facebook__x28_alt_x29_ Copy</title>
    <desc>Created with Sketch.</desc>
    <defs></defs>
    <g id="Mobile:-Landing-Page" stroke="none" stroke-width="1" fill="none" fill-rule="evenodd" opacity="0.766077899">
        <g id="Mobile-Landing-Page" transform="translate(-60.000000, -245.000000)" fill-rule="nonzero" fill="#A5264D">
            <g id="BANNER" transform="translate(0.000000, 75.000000)">
                <g id="cta" transform="translate(38.000000, 159.000000)">
                    <g id="002-facebook-logo" transform="translate(22.756400, 11.952830)">
                        <path d="M21.8006067,3.54307458 C21.8006067,1.6814311 20.0769054,0 18.1671722,0 L3.63343445,0 C1.7237013,0 0,1.6814311 0,3.54307458 L0,17.7139558 C0,19.5755992 1.7237013,21.2570303 3.63367668,21.2570303 L10.9003033,21.2570303 L10.9003033,13.2265967 L8.23578475,13.2265967 L8.23578475,9.68375827 L10.9003033,9.68375827 L10.9003033,8.30346843 C10.9003033,5.92291722 12.7334921,3.77902762 14.9879171,3.77902762 L17.9249433,3.77902762 L17.9249433,7.32186601 L14.9879171,7.32186601 C14.6664793,7.32186601 14.2915088,7.70236685 14.2915088,8.27229145 L14.2915088,9.68375827 L17.9249433,9.68375827 L17.9249433,13.2265967 L14.2915088,13.2265967 L14.2915088,21.2570303 L18.1671722,21.2570303 C20.0769054,21.2570303 21.8006067,19.5755992 21.8006067,17.7139558 L21.8006067,3.54307458 Z" id="Facebook__x28_alt_x29_-Copy"></path>
                    </g>
                </g>
            </g>
        </g>
    </g>
</svg>