<?xml version="1.0" encoding="UTF-8"?>
<svg width="68px" height="68px" viewBox="0 0 68 68" version="1.1" xmlns="http://www.w3.org/2000/svg" xmlns:xlink="http://www.w3.org/1999/xlink">
    <!-- Generator: Sketch 46 (44423) - http://www.bohemiancoding.com/sketch -->
    <title>icon_pack</title>
    <desc>Created with Sketch.</desc>
    <defs></defs>
    <g id="Landing-Page" stroke="none" stroke-width="1" fill="none" fill-rule="evenodd">
        <g transform="translate(-1029.000000, -1050.000000)" id="FEATURES" fill-rule="nonzero" fill="#F6CDD3">
            <g transform="translate(-551.000000, 257.000000)">
                <g id="icon_pack" transform="translate(1580.000000, 793.000000)">
                    <path d="M34,67.665 C33.81,67.665 33.619,67.629 33.438,67.556 L1.296,54.562 C0.729,54.333 0.358,53.783 0.358,53.171 L0.358,14.418 C0.358,13.919 0.606,13.453 1.019,13.174 C1.433,12.897 1.958,12.841 2.42,13.028 L34.562,26.022 C35.129,26.251 35.5,26.801 35.5,27.413 L35.5,66.166 C35.5,66.665 35.252,67.131 34.839,67.409 C34.587,67.578 34.294,67.665 34,67.665 Z M3.358,52.159 L32.5,63.94 L32.5,28.424 L3.358,16.643 L3.358,52.159 Z" id="Shape"></path>
                    <path d="M34.001,67.665 C33.707,67.665 33.414,67.578 33.162,67.408 C32.749,67.13 32.501,66.664 32.501,66.165 L32.501,27.412 C32.501,26.801 32.872,26.251 33.439,26.021 L65.58,13.027 C66.042,12.84 66.567,12.896 66.981,13.173 C67.394,13.452 67.642,13.918 67.642,14.417 L67.642,53.17 C67.642,53.781 67.271,54.331 66.704,54.561 L34.563,67.556 C34.382,67.629 34.191,67.665 34.001,67.665 Z M35.501,28.424 L35.501,63.94 L64.642,52.159 L64.642,16.643 L35.501,28.424 Z" id="Shape"></path>
                    <path d="M34,28.912 C33.809,28.912 33.618,28.876 33.438,28.803 L1.296,15.809 C0.726,15.579 0.355,15.025 0.358,14.411 C0.361,13.796 0.739,13.246 1.311,13.022 L33.453,0.439 C33.805,0.3 34.195,0.3 34.547,0.439 L66.689,13.022 C67.261,13.246 67.639,13.795 67.642,14.411 C67.645,15.025 67.274,15.579 66.704,15.809 L34.562,28.803 C34.382,28.876 34.191,28.912 34,28.912 Z M5.916,14.44 L34,25.794 L62.084,14.44 L34,3.446 L5.916,14.44 Z" id="Shape"></path>
                    <polygon id="Shape" points="53.272 8.65 45.622 5.516 12.71 19.338 13.826 19.773 13.826 28.735 20.461 31.812 20.461 22.384 20.214 22.263 20.522 22.384"></polygon>
                </g>
            </g>
        </g>
    </g>
</svg>