<?xml version="1.0" encoding="utf-8"?>
<!-- Generator: Adobe Illustrator 16.0.0, SVG Export Plug-In . SVG Version: 6.00 Build 0)  -->
<!DOCTYPE svg PUBLIC "-//W3C//DTD SVG 1.1//EN" "http://www.w3.org/Graphics/SVG/1.1/DTD/svg11.dtd">
<svg version="1.1" id="Layer_1" xmlns="http://www.w3.org/2000/svg" xmlns:xlink="http://www.w3.org/1999/xlink" x="0px" y="0px"
	 width="39px" height="23px" viewBox="0 0 39 23" enable-background="new 0 0 39 23" xml:space="preserve">
<title>Shape</title>
<desc>Created with Sketch.</desc>
<g id="Landing-Page">
	<g id="FOOTER-Copy" transform="translate(-695.000000, -3218.000000)">
		<g transform="translate(-32.000000, 2864.000000)">
			<g id="Group-5" transform="translate(727.000000, 354.000000)">
				<path id="Shape" fill="#F49FC5" d="M1.743,0c-0.125,0-0.25,0.016-0.368,0.041l16.911,14.092c0.417,0.348,1.353,0.348,1.769,0
					L36.966,0.041C36.848,0.016,36.723,0,36.598,0H1.743z M0.082,1.252C0.036,1.409,0,1.572,0,1.743v19.17
					c0,0.171,0.036,0.335,0.082,0.49l12.526-9.721L0.082,1.252z M38.26,1.252l-12.527,10.43l12.527,9.721
					c0.045-0.155,0.081-0.319,0.081-0.49V1.743C38.341,1.572,38.305,1.409,38.26,1.252L38.26,1.252z M13.969,12.826L1.389,22.615
					c0.114,0.023,0.233,0.041,0.354,0.041h34.855c0.121,0,0.24-0.018,0.354-0.041l-12.581-9.789l-3.199,2.654
					c-1.15,0.958-2.853,0.958-4.003,0L13.969,12.826L13.969,12.826z"/>
			</g>
		</g>
	</g>
</g>
</svg>
