<?xml version="1.0" encoding="utf-8"?>
<!-- Generator: Adobe Illustrator 16.0.0, SVG Export Plug-In . SVG Version: 6.00 Build 0)  -->
<!DOCTYPE svg PUBLIC "-//W3C//DTD SVG 1.1//EN" "http://www.w3.org/Graphics/SVG/1.1/DTD/svg11.dtd">
<svg version="1.1" id="Layer_1" xmlns="http://www.w3.org/2000/svg" xmlns:xlink="http://www.w3.org/1999/xlink" x="0px" y="0px"
	 width="28px" height="28px" viewBox="0 0 28 28" enable-background="new 0 0 28 28" xml:space="preserve">
<title>whatsapp-logo</title>
<desc>Created with Sketch.</desc>
<g id="Landing-Page">
	<g id="INVITE" transform="translate(-800.000000, -1795.000000)">
		<g transform="translate(-20.000000, 1435.000000)">
			<g id="Group-5-Copy" transform="translate(820.000000, 360.000000)">
				<g id="whatsapp-logo">
					<path id="Combined-Shape" fill="#F49FC5" d="M28,13.64c0,7.532-6.153,13.64-13.746,13.64c-2.41,0-4.674-0.616-6.645-1.697L0,28
						l2.481-7.318c-1.251-2.055-1.972-4.465-1.972-7.042C0.509,6.106,6.663,0,14.254,0C21.848,0,28,6.106,28,13.64z M21.195,16.781
						c-0.084-0.14-0.309-0.224-0.646-0.391s-1.994-0.977-2.302-1.088c-0.31-0.111-0.535-0.167-0.759,0.168
						c-0.225,0.334-0.87,1.087-1.067,1.311c-0.196,0.223-0.393,0.251-0.73,0.084c-0.336-0.168-1.422-0.521-2.709-1.659
						c-1.001-0.886-1.678-1.98-1.874-2.315c-0.196-0.334-0.021-0.515,0.147-0.682c0.152-0.15,0.337-0.39,0.506-0.585
						c0.169-0.195,0.225-0.334,0.336-0.558c0.113-0.223,0.057-0.418-0.028-0.586c-0.084-0.167-0.759-1.812-1.039-2.481
						C10.75,7.33,10.47,7.441,10.273,7.441S9.852,7.413,9.627,7.413s-0.59,0.083-0.899,0.418C8.42,8.166,7.55,8.975,7.55,10.62
						s1.207,3.234,1.375,3.457c0.168,0.223,2.331,3.708,5.756,5.047c3.425,1.338,3.425,0.892,4.043,0.835
						c0.617-0.055,1.992-0.809,2.275-1.588C21.279,17.59,21.279,16.92,21.195,16.781z"/>
				</g>
			</g>
		</g>
	</g>
</g>
</svg>
