<?xml version="1.0" encoding="UTF-8"?>
<svg width="81px" height="82px" viewBox="0 0 81 82" version="1.1" xmlns="http://www.w3.org/2000/svg" xmlns:xlink="http://www.w3.org/1999/xlink">
    <!-- Generator: Sketch 45.2 (43514) - http://www.bohemiancoding.com/sketch -->
    <title>Megáfono</title>
    <desc>Created with Sketch.</desc>
    <defs></defs>
    <g id="Landing-Page" stroke="none" stroke-width="1" fill="none" fill-rule="evenodd">
        <g transform="translate(-600.000000, -2916.000000)" id="FOOTER-Copy">
            <g transform="translate(-32.000000, 2864.000000)">
                <g id="Megáfono" transform="translate(632.272692, 52.236328)">
                    <path d="M80.4546155,40.7636719 C80.4546155,63.2770692 62.4451619,81.5273438 40.2276457,81.5273438 C18.0108052,81.5273438 0,63.2770692 0,40.7636719 C0,18.2502745 18.0108052,0 40.2276457,0 C62.4451619,0 80.4546155,18.2502745 80.4546155,40.7636719" id="Fill-8" fill="#E63976"></path>
                    <g id="Group-7" transform="translate(16.484815, 17.526339)" fill-rule="nonzero" fill="#FFFFFF">
                        <path d="M22.1874253,4.36116467 L0.381601909,39.8501422 L6.97786348,46.4464038 L16.4633966,40.613346 L17.4446587,41.5946081 C18.7530081,42.9029575 20.4429594,43.5571322 22.1329107,43.5571322 C23.332231,43.5571322 24.5315513,43.2300448 25.6218425,42.5758701 C27.3663083,41.4855789 28.511114,39.7411131 28.7291723,37.6695599 C28.892716,36.2521813 28.5656286,34.8348028 27.9114539,33.580968 L42.5213556,24.5860658 L22.1874253,4.36116467 Z M22.7870854,9.32198949 L37.5060162,24.0409203 L35.1618902,25.5128133 L21.3151923,11.6661155 L22.7870854,9.32198949 Z M4.30665011,39.3595112 L19.6797556,14.3373289 L32.4361623,27.0937355 L7.41397994,42.5213556 L4.30665011,39.3595112 Z M25.6218425,37.287958 C25.5128133,38.3782491 24.8586386,39.3049966 23.9318911,39.9046568 C22.5145126,40.7768897 20.7155322,40.5588315 19.5707265,39.4140257 L19.13461,38.9779093 L25.185726,35.2164047 C25.5673279,35.8705794 25.7308716,36.5792687 25.6218425,37.287958 Z" id="Shape"></path>
                        <rect id="Rectangle-path" transform="translate(40.835904, 6.101528) rotate(-45.000000) translate(-40.835904, -6.101528) " x="35.4390149" y="4.54787831" width="10.7937791" height="3.10730003"></rect>
                        <rect id="Rectangle-path" x="38.1056763" y="13.3560668" width="8.39524199" height="3.10732983"></rect>
                        <rect id="Rectangle-path" x="30.4736382" y="0.436116467" width="3.10732983" height="8.39524199"></rect>
                    </g>
                </g>
            </g>
        </g>
    </g>
</svg>