<?xml version="1.0" encoding="UTF-8"?>
<svg width="28px" height="28px" viewBox="0 0 28 28" version="1.1" xmlns="http://www.w3.org/2000/svg" xmlns:xlink="http://www.w3.org/1999/xlink">
    <!-- Generator: Sketch 46 (44423) - http://www.bohemiancoding.com/sketch -->
    <title>whatsapp-logo</title>
    <desc>Created with Sketch.</desc>
    <defs></defs>
    <g id="Landing-Page" stroke="none" stroke-width="1" fill="none" fill-rule="evenodd">
        <g transform="translate(-800.000000, -1795.000000)" id="INVITE" fill-rule="nonzero" fill="#E52E6A">
            <g transform="translate(-20.000000, 1435.000000)">
                <g id="Group-5-Copy" transform="translate(820.000000, 360.000000)">
                    <g id="whatsapp-logo">
                        <path d="M28,13.6394222 C28,21.1723556 21.8465333,27.2788444 14.2544889,27.2788444 C11.8443111,27.2788444 9.58004444,26.6628444 7.61008889,25.5817333 L0,28 L2.48111111,20.6820444 C1.22951111,18.6268444 0.508666667,16.2163556 0.508666667,13.6394222 C0.508666667,6.10648889 6.66275556,0 14.2544889,0 C21.8471556,0 28,6.10648889 28,13.6394222 Z M21.1956889,16.7807111 C21.1107556,16.6416444 20.8864444,16.5576444 20.5498222,16.3905778 C20.2125778,16.2235111 18.5556,15.4143111 18.2476,15.3032444 C17.9386667,15.1918667 17.7134222,15.1358667 17.4891111,15.4703111 C17.2648,15.8050667 16.6189333,16.5576444 16.422,16.7807111 C16.2253778,17.0044 16.0290667,17.0324 15.6918222,16.8650222 C15.3552,16.6979556 14.2697333,16.3445333 12.9826667,15.2058667 C11.9812,14.3198222 11.3048444,13.2259556 11.1082222,12.8908889 C10.9119111,12.5564444 11.0876889,12.3756889 11.256,12.2092444 C11.4078222,12.0592889 11.5932444,11.8188 11.7615556,11.6237333 C11.9304889,11.4283556 11.9864889,11.2892889 12.0981778,11.0659111 C12.2111111,10.8428444 12.1548,10.6477778 12.0701778,10.4800889 C11.9861778,10.3130222 11.3116889,8.66786667 11.0310667,7.99835556 C10.7504444,7.32946667 10.4701333,7.44084444 10.2732,7.44084444 C10.0768889,7.44084444 9.85195556,7.41284444 9.62733333,7.41284444 C9.40271111,7.41284444 9.03746667,7.49653333 8.72853333,7.83097778 C8.41991111,8.16573333 7.54973333,8.97462222 7.54973333,10.6194667 C7.54973333,12.2646222 8.75653333,13.8540889 8.92546667,14.0768444 C9.09377778,14.2996 11.2556889,17.7852889 14.6810222,19.124 C18.1066667,20.4620889 18.1066667,20.0156444 18.7245333,19.9596444 C19.3417778,19.9039556 20.7175111,19.1510667 20.9993778,18.3708 C21.2793778,17.5892889 21.2793778,16.9200889 21.1956889,16.7807111 Z" id="Combined-Shape"></path>
                    </g>
                </g>
            </g>
        </g>
    </g>
</svg>