<?xml version="1.0" encoding="utf-8"?>
<!-- Generator: Adobe Illustrator 16.0.0, SVG Export Plug-In . SVG Version: 6.00 Build 0)  -->
<!DOCTYPE svg PUBLIC "-//W3C//DTD SVG 1.1//EN" "http://www.w3.org/Graphics/SVG/1.1/DTD/svg11.dtd">
<svg version="1.1" id="Layer_1" xmlns="http://www.w3.org/2000/svg" xmlns:xlink="http://www.w3.org/1999/xlink" x="0px" y="0px"
	 width="26px" height="26px" viewBox="0 0 26 26" enable-background="new 0 0 26 26" xml:space="preserve">
<title>002-facebook-logo</title>
<desc>Created with Sketch.</desc>
<g id="Mobile:-Landing-Page">
	<g id="Mobile-Landing-Page" transform="translate(-34.000000, -4311.000000)">
		<g id="INVITE" transform="translate(0.000000, 3854.000000)">
			<g id="Group-5" transform="translate(34.000000, 457.000000)">
				<g id="_x30_02-facebook-logo">
					<path id="Facebook__x28_alt_x29_-Copy" fill="#F49FC5" d="M25.605,4.268C25.605,2.025,23.58,0,21.338,0H4.268
						C2.024,0,0,2.025,0,4.268v17.07c0,2.242,2.024,4.268,4.268,4.268h8.535v-9.674h-3.13v-4.267h3.13v-1.663
						c0-2.868,2.152-5.45,4.801-5.45h3.449v4.268h-3.449c-0.377,0-0.818,0.458-0.818,1.145v1.7h4.268v4.267h-4.268v9.674h4.553
						c2.242,0,4.268-2.025,4.268-4.268V4.268z"/>
				</g>
			</g>
		</g>
	</g>
</g>
</svg>
