<?xml version="1.0" encoding="UTF-8"?>
<svg width="70px" height="70px" viewBox="0 0 70 70" version="1.1" xmlns="http://www.w3.org/2000/svg" xmlns:xlink="http://www.w3.org/1999/xlink">
    <!-- Generator: Sketch 46 (44423) - http://www.bohemiancoding.com/sketch -->
    <title>icon_users</title>
    <desc>Created with Sketch.</desc>
    <defs></defs>
    <g id="Landing-Page" stroke="none" stroke-width="1" fill="none" fill-rule="evenodd">
        <g transform="translate(-193.000000, -1047.000000)" id="FEATURES" fill-rule="nonzero" fill="#F4BBC3">
            <g transform="translate(-551.000000, 257.000000)">
                <g id="icon_users" transform="translate(744.000000, 790.000000)">
                    <path d="M63,44.8 C60.963,44.8 59.1416,45.6904 57.862,47.0834 L46.4464,40.2346 C47.18,38.6386 47.6,36.869 47.6,35 C47.6,32.0292 46.5612,29.302 44.835,27.1446 L51.541,20.4372 C53.1776,21.6636 55.2034,22.4 57.4,22.4 C62.8026,22.4 67.2,18.004 67.2,12.6 C67.2,7.196 62.8026,2.8 57.4,2.8 C51.9974,2.8 47.6,7.196 47.6,12.6 C47.6,14.798 48.335,16.8224 49.5614,18.4576 L42.8554,25.165 C40.6994,23.4388 37.9708,22.4 35.0014,22.4 C32.0306,22.4 29.302,23.4388 27.146,25.1664 L12.8338,10.8542 C13.5674,9.7468 14,8.4252 14,7 C14,3.1402 10.8598,0 7,0 C3.1402,0 0,3.1402 0,7 C0,10.8598 3.1402,14 7,14 C8.4252,14 9.7468,13.5674 10.8542,12.8338 L25.1664,27.146 C23.4416,29.302 22.4014,32.0306 22.4014,35 C22.4014,38.8612 24.1514,42.3192 26.8954,44.632 L25.6018,46.5738 C24.1584,48.741 22.9502,50.5512 22.4084,51.3632 C21.1316,50.7528 19.7078,50.4 18.2,50.4 C12.796,50.4 8.4,54.7974 8.4,60.2 C8.4,65.6026 12.796,70 18.2,70 C23.604,70 28,65.6026 28,60.2 C28,57.2922 26.719,54.684 24.7002,52.8864 C25.3092,52.059 26.264,50.6282 27.9314,48.1264 L29.225,46.1846 C30.9582,47.0834 32.9196,47.6 35.0014,47.6 C39.0768,47.6 42.6972,45.6456 45.0016,42.6328 L56.4242,49.4872 C56.1666,50.2138 56,50.9852 56,51.8 C56,55.6598 59.1402,58.8 63,58.8 C66.8598,58.8 70,55.6598 70,51.8 C70,47.9402 66.8598,44.8 63,44.8 Z M25.2,60.2 C25.2,64.0598 22.0598,67.2 18.2,67.2 C14.3402,67.2 11.2,64.0598 11.2,60.2 C11.2,56.3402 14.3402,53.2 18.2,53.2 C22.0598,53.2 25.2,56.3402 25.2,60.2 Z M57.4,5.6 C61.2598,5.6 64.4,8.7402 64.4,12.6 C64.4,16.4598 61.2598,19.6 57.4,19.6 C53.5402,19.6 50.4,16.4598 50.4,12.6 C50.4,8.7402 53.5402,5.6 57.4,5.6 Z M2.8,7 C2.8,4.6844 4.6844,2.8 7,2.8 C9.3156,2.8 11.2,4.6844 11.2,7 C11.2,9.3156 9.3156,11.2 7,11.2 C4.6844,11.2 2.8,9.3156 2.8,7 Z M35.0014,44.8 C29.5974,44.8 25.2014,40.4026 25.2014,35 C25.2014,29.5974 29.5974,25.2 35.0014,25.2 C40.404,25.2 44.8,29.596 44.8,35 C44.8,40.4026 40.404,44.8 35.0014,44.8 Z M63,56 C60.6844,56 58.8,54.1156 58.8,51.8 C58.8,49.4844 60.6844,47.6 63,47.6 C65.3156,47.6 67.2,49.4844 67.2,51.8 C67.2,54.1156 65.3156,56 63,56 Z" id="Shape"></path>
                </g>
            </g>
        </g>
    </g>
</svg>